<svg t="1713191383232" class="icon" viewBox="0 0 1024 1024" version="1.1" xmlns="http://www.w3.org/2000/svg" p-id="5348" width="200" height="200"><path d="M512 0c282.7776 0 512 229.2224 512 512s-229.2224 512-512 512S0 794.7776 0 512 229.2224 0 512 0zM145.3056 409.6H102.4l107.776 256h40.192l3.9424-0.4096a20.6848 20.6848 0 0 0 14.5408-11.6224L367.2064 409.6h-39.424l-4.4032 0.4096a24.3712 24.3712 0 0 0-16.64 12.544l-71.0144 177.7664-69.12-177.408-2.3552-3.7376A23.7568 23.7568 0 0 0 145.3056 409.6zM870.4 409.6h-116.736l-11.008 0.256c-35.84 1.792-62.8224 12.4928-80.896 32.1536-19.8144 21.5552-29.696 54.9888-29.696 100.1472 0 23.3472 3.2768 43.3664 9.8816 60.16 6.656 16.7424 16.5376 30.3616 29.7984 40.8064 10.0352 8.0384 20.8384 13.824 32.3584 17.2544 11.52 3.4816 28.0576 5.2224 49.6128 5.2224h88.2688l4.608-0.3584A28.2624 28.2624 0 0 0 870.4 637.44v-98.6624l-0.3584-4.3008a25.2928 25.2928 0 0 0-23.04-20.6848h-104.9088v45.2096h72.704v60.3136H753.664l-7.7824-0.3072c-17.4592-1.3824-30.4128-7.5776-38.912-18.5344-9.728-12.544-14.592-32.768-14.592-60.7744 0-29.952 4.864-51.8144 14.6432-65.4848 9.7792-13.7216 25.344-20.5312 46.592-20.5312h89.7024l4.864-0.6656A28.2112 28.2112 0 0 0 870.4 425.472V409.6z m-264.8064 0h-90.2656l-11.0592 0.256c-35.9424 1.792-62.9248 12.4928-80.896 32.0512-19.7632 21.504-29.696 54.9376-29.696 100.2496 0 23.296 3.328 43.3664 9.9328 60.16 6.656 16.7424 16.5376 30.3616 29.7984 40.8064 10.1376 8.1408 20.992 13.9264 32.6144 17.3568 11.5712 3.4304 27.4944 5.12 47.7696 5.12h63.3856l4.608-0.3584a28.2624 28.2624 0 0 0 23.808-27.8528v-16.384h-89.1904l-8.3968-0.256c-18.8928-1.2288-32.4608-6.912-40.7552-16.9472-9.472-11.52-14.2336-31.3344-14.2336-59.392 0-32.4096 4.9664-55.7056 14.848-69.8368 9.8816-14.1824 26.112-21.248 48.5376-21.248h60.7744l4.5568-0.3584a28.2624 28.2624 0 0 0 23.8592-27.2384V409.6z" fill="#E84F4D" p-id="5349"></path></svg>