<?xml version="1.0" standalone="no"?><!DOCTYPE svg PUBLIC "-//W3C//DTD SVG 1.1//EN" "http://www.w3.org/Graphics/SVG/1.1/DTD/svg11.dtd"><svg t="1713169986967" class="icon" viewBox="0 0 1024 1024" version="1.1" xmlns="http://www.w3.org/2000/svg" p-id="14596" xmlns:xlink="http://www.w3.org/1999/xlink" width="200" height="200"><path d="M673.3 634.7l-20.5-119.8 87-84.8c21.4-20.9 29-51.5 19.7-80-9.2-28.4-33.4-48.8-63-53.1l-120.3-17.5-53.8-109c-13.2-26.8-40-43.5-69.9-43.5s-56.7 16.7-69.9 43.5l-53.8 109L208.5 297c-29.6 4.3-53.7 24.6-63 53.1-9.2 28.4-1.7 59.1 19.7 80l87 84.8-20.5 119.8c-5.1 29.5 6.8 58.7 31 76.3 24.2 17.6 55.7 19.9 82.1 5.9l107.6-56.6L560 716.9c11.5 6.1 24 9 36.4 9 16.1 0 32.1-5 45.8-15 24.3-17.5 36.2-46.7 31.1-76.2z m-64.7-160.5c-12.7 12.4-18.5 30.3-15.5 47.8l21.1 122.9c1.7 10-4.4 15.6-7.2 17.6-2.7 2-10 6.1-19 1.4l-110.4-58c-7.9-4.1-16.5-6.2-25.1-6.2-8.6 0-17.3 2.1-25.1 6.2l-110.4 58c-8.9 4.7-16.2 0.6-19-1.4-2.7-2-8.9-7.7-7.2-17.6L312 522c3-17.5-2.8-35.4-15.5-47.8l-89.3-87c-7.2-7-5.6-15.3-4.6-18.5 1-3.2 4.5-10.8 14.5-12.3l123.4-17.9c17.6-2.6 32.8-13.6 40.7-29.5l55.2-111.8c4.5-9.1 12.8-10 16.1-10 3.4 0 11.7 1 16.1 10L523.9 309c7.9 15.9 23.1 27 40.7 29.5L688 356.4c10 1.5 13.5 9.1 14.5 12.2 1 3.2 2.7 11.4-4.6 18.5l-89.3 87.1z" p-id="14597"></path><path d="M394.7 759.8l118.7 118.7c3.1 3.1 8.2 3.1 11.3 0l31.1-31.1c3.1-3.1 3.1-8.2 0-11.3L437.2 717.3c-3.1-3.1-8.2-3.1-11.3 0l-31.1 31.1c-3.2 3.2-3.2 8.2-0.1 11.4zM676.7 763.8l118.7 118.7c3.1 3.1 8.2 3.1 11.3 0l31.1-31.1c3.1-3.1 3.1-8.2 0-11.3L719.2 721.3c-3.1-3.1-8.2-3.1-11.3 0l-31.1 31.1c-3.2 3.2-3.2 8.2-0.1 11.4zM706.7 525.8l118.7 118.7c3.1 3.1 8.2 3.1 11.3 0l31.1-31.1c3.1-3.1 3.1-8.2 0-11.3L749.2 483.3c-3.1-3.1-8.2-3.1-11.3 0l-31.1 31.1c-3.2 3.2-3.2 8.2-0.1 11.4z" p-id="14598"></path></svg>