<?xml version="1.0" standalone="no"?><!DOCTYPE svg PUBLIC "-//W3C//DTD SVG 1.1//EN" "http://www.w3.org/Graphics/SVG/1.1/DTD/svg11.dtd"><svg t="1713168940255" class="icon" viewBox="0 0 1152 1024" version="1.1" xmlns="http://www.w3.org/2000/svg" p-id="5833" xmlns:xlink="http://www.w3.org/1999/xlink" width="225" height="200"><path d="M667 402.8c0-44.2-31.2-68.6-86-68.6h-100.8v142.4h85c65.6-0.2 101.8-26.6 101.8-73.8zM1034 377.2c-19-61.8-21.8-137.6-19.6-196.2C1016.6 120 969 64 905 64H247.4C183.2 64 135.8 120.2 138 181c2 58.6-0.6 134.4-19.6 196.2-19.2 62-51.4 101.2-104.4 106.2v57c52.8 5 85.2 44.2 104.4 106.2 19 61.8 21.8 137.6 19.6 196.2-2.2 61 45.4 117 109.4 117h657.4c64.2 0 111.6-56.2 109.4-117-2-58.6 0.6-134.4 19.6-196.2 19.2-62 51.4-101.2 104.2-106.2v-57c-52.6-5-85-44.2-104-106.2zM600.4 750.2h-195.8V273.6h194.8c86.6 0 143.4 46.8 143.4 118.8 0 50.6-38.2 95.8-87 103.6v2.6c66.4 7.2 111 53.2 111 116.6 0 84.2-62.6 135-166.4 135z m-20-217.4h-100.2v156.8h104.6c68.4 0 104.6-27.4 104.6-79 0-51.4-37.2-77.8-109-77.8z" p-id="5834" fill="#771ef0"></path></svg>