<svg t="1713370294456" class="icon" viewBox="0 0 1024 1024" version="1.1" xmlns="http://www.w3.org/2000/svg" p-id="14383" width="200" height="200"><path d="M237.419 64H786.58C882.358 64 960 141.642 960 237.419V786.58C960 882.358 882.358 960 786.581 960H237.419C141.642 960 64 882.358 64 786.581V237.419C64 141.642 141.642 64 237.419 64z" p-id="14384"></path><path d="M652.903 676.688c-17.296 0-31.312-14.02-31.312-31.312 0-3.781 0.705-7.386 1.93-10.74-0.638 0.113-1.296 0.164-1.93 0.294V454.531c0-65.367 56.076-118.359 125.247-118.359s125.247 52.991 125.247 118.359V635.04c-0.618-0.129-1.264-0.18-1.891-0.297 1.202 3.323 1.891 6.893 1.891 10.634 0 17.292-14.02 31.312-31.312 31.312-16.216 0-29.551-12.325-31.151-28.118-0.368 0.266-0.716 0.56-1.08 0.838 0.415-3.405 0.704-6.861 0.704-10.403V471.987c0-40.357-27.938-73.07-62.408-73.07s-62.412 32.713-62.412 73.07v167.017c0 3.687 0.309 7.284 0.759 10.826-0.395-0.305-0.779-0.634-1.182-0.932-1.749 15.633-14.998 27.79-31.1 27.79z m-313.118-324.86c0 17.292-14.02 31.312-31.312 31.312h-31.312v438.366c0 17.292-14.02 31.312-31.312 31.312s-31.312-14.02-31.312-31.312V383.14h-15.656v125.247c0 17.292-14.02 31.312-31.312 31.312s-31.312-14.02-31.312-31.312V351.828c0-17.292 14.02-31.312 31.312-31.312h46.968V210.925c0-17.292 14.02-31.312 31.312-31.312s31.312 14.02 31.312 31.312v109.591h31.312c17.292 0 31.312 14.02 31.312 31.312z m313.118-46.968c-17.296 0-31.312-14.02-31.312-31.312v-62.624c0-17.292 14.02-31.312 31.312-31.312s31.312 14.02 31.312 31.312h156.559c17.292 0 31.312 14.02 31.312 31.312v31.312c0 17.292-14.02 31.312-31.312 31.312s-31.312-14.02-31.312-31.312H684.215c0 17.292-14.02 31.312-31.312 31.312z m205.731 485.471c16.028 1.37 28.619 14.791 28.623 31.175 0 17.292-14.02 31.312-31.312 31.312-44.138 0-83.501-20.317-109.325-52.091-25.836 31.778-65.222 52.091-109.368 52.091-17.292 0-31.312-14.02-31.312-31.312 0-16.38 12.587-29.805 28.615-31.175 0.904 0.031 1.789 0.137 2.697 0.137 43.383 0 78.55-35.171 78.55-78.554a79.31 79.31 0 0 0-0.654-10.039c0.333 0.227 0.677 0.427 1.01 0.65a31.497 31.497 0 0 1-0.63-6.266V477.075c0-17.292 14.02-31.312 31.312-31.312s31.312 14.02 31.312 31.312v219.183c0 2.157-0.219 4.262-0.172 6.008a78.57 78.57 0 0 0-0.591 9.648c0 43.383 35.171 78.554 78.554 78.554 0.906 0 1.79-0.106 2.691-0.137z m-301.51-500.183h-76.432v50.502c62.741 14.243 109.591 70.319 109.591 137.369 0 55.43-32.02 103.36-78.561 126.367-9.711 15.589-15.374 33.958-15.374 53.676 0 42.33 25.852 78.616 62.624 93.951v2.102c17.292 0 31.312 14.02 31.312 31.312s-14.02 31.312-31.312 32.282c-1.671-0.411-3.292-0.939-4.94-1.397a31.004 31.004 0 0 1-8.024-2.407 164.4 164.4 0 0 1-65.316-40.842v49.387c0 17.292-14.02 31.312-31.312 31.312s-31.312-14.02-31.312-31.312v-49.406c-18.991 19.378-42.741 34.052-69.352 42.185a31.08 31.08 0 0 1-9.844 2.626c-1.01 0.243-1.988 0.552-3.002 0.153-17.292 0-31.312-14.02-31.312-31.312s14.02-31.312 31.312-33.136c38.838-14.329 66.538-51.676 66.538-95.493 0-19.703-5.636-38.075-15.335-53.657a141.499 141.499 0 0 1-50.04-41.359c-0.391-0.153-0.767-0.337-1.162-1.562-17.21-23.366-27.398-52.224-27.398-83.47 0-67.054 46.85-123.126 109.591-137.369v-50.502h-76.436c-18.314 0-33.155-14.02-33.155-31.312s14.846-31.312 33.155-31.312h76.436v-15.656c0-17.292 14.02-31.312 31.312-31.312s31.312 14.02 31.312 31.312v15.656h76.436c18.314 0 33.155 14.02 33.155 31.312 0.001 17.292-14.845 31.312-33.155 31.312z m-29.468 187.871c0-43.234-35.05-78.28-78.28-78.28-43.234 0-78.28 35.046-78.28 78.28 0 43.23 35.046 78.28 78.28 78.28 43.23-0.001 78.28-35.051 78.28-78.28z m-105.677-27.398h54.796v54.796h-54.796v-54.796z" fill="#FFFFFF" p-id="14385"></path></svg>