<svg t="1713413049574" class="icon" viewBox="0 0 1024 1024" version="1.1" xmlns="http://www.w3.org/2000/svg" p-id="14636" width="200" height="200"><path d="M825.95 462.397c87.94-35.604 150.04-121.692 150.04-222.399C975.99 107.446 868.542 0 735.99 0H0v31.992a79.992 79.992 0 0 1 79.992 79.992v799.987A80.003 80.003 0 0 1 0 991.974v32.015h736.002c159.07 0 287.998-128.951 287.998-287.998 0-127.63-83.051-235.799-198.05-273.594zM639.993 31.992c114.885 0.023 207.994 93.132 207.994 208.006 0 114.863-93.11 207.984-207.994 207.984h-319.99V111.995a79.992 79.992 0 0 1 80.003-79.991h239.987z m0.01 959.993l-0.112 0.023-239.897-0.023a79.992 79.992 0 0 1-79.992-80.003V479.996h319.923l0.09 0.012c141.391 0 255.983 114.614 255.983 255.994-0.011 141.369-114.592 255.983-255.994 255.983z" p-id="14637"></path></svg>