<svg t="1713373806130" class="icon" viewBox="0 0 1024 1024" version="1.1" xmlns="http://www.w3.org/2000/svg" p-id="6539" width="200" height="200"><path d="M430.08 942.08h-15.36c-10.24 0-25.6 0-35.84-5.12-10.24-5.12-25.6-5.12-35.84-5.12-10.24-5.12-25.6-5.12-35.84-10.24-10.24-5.12-20.48-10.24-35.84-15.36l-30.72-15.36c-10.24-5.12-20.48-10.24-30.72-20.48-10.24-5.12-20.48-15.36-30.72-20.48-10.24-10.24-20.48-15.36-25.6-25.6l-25.6-25.6c-10.24-10.24-15.36-20.48-20.48-30.72-15.36-20.48-25.6-40.96-35.84-61.44-5.12-10.24-10.24-20.48-15.36-35.84-5.12-10.24-5.12-20.48-10.24-30.72-5.12-10.24-5.12-20.48-10.24-35.84 0-15.36-5.12-20.48-5.12-30.72V563.2 496.64c0-10.24 0-25.6 5.12-35.84 0-10.24 5.12-20.48 5.12-35.84 0-10.24 5.12-20.48 10.24-35.84l15.36-30.72 15.36-30.72c5.12-10.24 10.24-20.48 15.36-25.6 15.36-30.72 40.96-56.32 61.44-81.92 15.36-15.36 30.72-30.72 51.2-46.08 10.24-5.12 20.48-10.24 25.6-20.48l30.72-15.36 30.72-15.36c10.24 0 20.48-5.12 30.72-10.24L358.4 102.4l30.72-10.24 30.72-5.12 30.72-5.12H512l30.72 5.12 30.72 5.12 30.72 5.12 30.72 10.24 25.6 10.24 25.6 10.24 30.72 10.24 20.48 15.36 25.6 15.36 20.48 15.36 25.6 20.48 20.48 20.48 20.48 20.48 15.36 20.48 15.36 20.48 15.36 20.48 15.36 20.48c5.12 5.12 10.24 15.36 10.24 20.48 0 5.12 5.12 10.24 5.12 20.48 5.12 5.12 5.12 15.36 10.24 20.48 5.12 5.12 5.12 15.36 10.24 20.48 0 5.12 5.12 15.36 5.12 20.48 5.12 15.36 10.24 30.72 10.24 40.96 5.12 15.36 5.12 30.72 5.12 40.96s5.12 25.6 5.12 40.96v71.68c0 10.24 0 20.48-5.12 35.84 0 10.24-5.12 20.48-5.12 30.72 0 10.24-5.12 20.48-10.24 30.72-5.12 10.24-5.12 20.48-10.24 25.6-5.12 10.24-5.12 15.36-10.24 25.6s-5.12 15.36-10.24 20.48c0 15.36 0 20.48-5.12 25.6-5.12 5.12-10.24 20.48-15.36 30.72-5.12 10.24-10.24 15.36-15.36 25.6-15.36-5.12-51.2-30.72-71.68-40.96 0 0 0-5.12 5.12-5.12l10.24-20.48c5.12-10.24 10.24-15.36 15.36-25.6l10.24-15.36 10.24-20.48c5.12-5.12 5.12-15.36 10.24-20.48 0-5.12 5.12-15.36 5.12-25.6s5.12-15.36 5.12-25.6 5.12-15.36 5.12-25.6 5.12-20.48 5.12-30.72V563.2c0-10.24 0-20.48-5.12-35.84-5.12-10.24-5.12-25.6-5.12-35.84-5.12-10.24-5.12-25.6-10.24-35.84l-10.24-20.48c0-5.12-5.12-10.24-5.12-20.48l-5.12-15.36c-5.12-5.12-5.12-10.24-10.24-20.48l-10.24-20.48-10.24-15.36-10.24-20.48-15.36-15.36-15.36-15.36-15.36-10.24-15.36-15.36-15.36-15.36-20.48-15.36-20.48-10.24-20.48-10.24-20.48-10.24-20.48-10.24-25.6-5.12-25.6-5.12-25.6-5.12-25.6-5.12-25.6-10.24h-51.2l-25.6 5.12-25.6 5.12-25.6 5.12-25.6 10.24-25.6 10.24-20.48 10.24-25.6 15.36-20.48 15.36c-10.24 5.12-15.36 10.24-25.6 15.36-5.12 10.24-15.36 15.36-20.48 20.48-5.12 5.12-10.24 15.36-15.36 20.48-10.24 5.12-15.36 15.36-20.48 20.48-5.12 10.24-10.24 15.36-15.36 25.6-10.24 15.36-15.36 30.72-25.6 51.2-5.12 10.24-5.12 15.36-10.24 25.6 0 10.24-5.12 20.48-5.12 25.6 0 10.24-5.12 20.48-5.12 25.6V563.2c0 10.24 0 20.48 5.12 30.72s5.12 20.48 5.12 30.72c5.12 10.24 5.12 20.48 10.24 25.6 5.12 10.24 5.12 20.48 10.24 25.6 10.24 15.36 20.48 35.84 30.72 51.2 10.24 15.36 25.6 30.72 35.84 46.08l20.48 20.48c15.36 10.24 30.72 25.6 46.08 30.72 10.24 5.12 15.36 10.24 25.6 15.36 10.24 5.12 15.36 5.12 25.6 10.24s20.48 5.12 25.6 10.24 20.48 5.12 30.72 5.12h61.44c10.24 0 20.48 0 30.72-5.12 10.24-5.12 20.48-5.12 25.6-5.12 10.24 0 20.48-5.12 25.6-10.24 10.24-5.12 15.36-5.12 25.6-10.24s15.36-10.24 25.6-15.36c15.36-10.24 30.72-20.48 46.08-35.84l20.48-20.48c5.12-5.12 10.24-15.36 15.36-20.48 5.12-5.12 10.24-15.36 15.36-25.6 5.12-10.24 10.24-15.36 10.24-25.6 5.12-10.24 5.12-15.36 10.24-25.6 10.24-25.6 15.36-51.2 15.36-81.92v-25.6c-5.12-25.6-10.24-51.2-20.48-76.8-5.12-10.24-5.12-15.36-10.24-25.6-5.12-5.12-10.24-15.36-15.36-20.48-15.36-20.48-35.84-40.96-56.32-56.32-15.36-10.24-30.72-20.48-46.08-25.6-5.12-5.12-15.36-5.12-25.6-10.24-10.24 0-15.36-5.12-25.6-5.12s-15.36 0-25.6-5.12h-25.6c-5.12 10.24-20.48 10.24-35.84 15.36-5.12 0-15.36 5.12-20.48 10.24-10.24 0-15.36 5.12-25.6 5.12l-15.36 15.36c-30.72 20.48-56.32 51.2-71.68 81.92-5.12 15.36-5.12 30.72-10.24 40.96v20.48c0 25.6 5.12 51.2 15.36 76.8 5.12 10.24 10.24 20.48 20.48 30.72 10.24 15.36 25.6 25.6 40.96 35.84l15.36 5.12 15.36 5.12 15.36 5.12H455.68c10.24 0 20.48-5.12 30.72-10.24 15.36-10.24 30.72-20.48 40.96-35.84 10.24-15.36 15.36-30.72 15.36-46.08v-20.48c0-5.12-5.12-15.36-5.12-20.48-5.12-10.24-10.24-20.48-20.48-25.6-5.12-5.12-10.24-5.12-15.36-5.12-5.12 0-10.24 0-15.36-5.12h-10.24c-5.12 0-10.24 5.12-15.36 10.24-10.24-15.36-46.08-51.2-56.32-61.44 15.36-15.36 35.84-25.6 56.32-25.6 10.24-5.12 25.6-5.12 35.84-5.12 25.6 0 46.08 10.24 66.56 25.6s40.96 35.84 51.2 61.44c5.12 15.36 10.24 25.6 10.24 40.96 5.12 15.36 5.12 25.6 0 40.96 0 30.72-10.24 61.44-30.72 87.04-20.48 25.6-40.96 51.2-71.68 61.44-20.48 10.24-46.08 20.48-71.68 20.48h-51.2c-35.84-5.12-71.68-20.48-97.28-40.96-20.48-15.36-40.96-35.84-56.32-61.44-5.12-10.24-10.24-15.36-15.36-25.6-15.36-25.6-20.48-56.32-25.6-87.04v-30.72c0-61.44 25.6-122.88 66.56-168.96 5.12-10.24 15.36-15.36 20.48-20.48 25.6-20.48 51.2-40.96 81.92-51.2 20.48-10.24 40.96-15.36 66.56-20.48 30.72-5.12 66.56-5.12 102.4 0 46.08 10.24 87.04 25.6 122.88 51.2 20.48 15.36 35.84 30.72 51.2 46.08 10.24 10.24 15.36 15.36 20.48 25.6 20.48 30.72 35.84 61.44 46.08 92.16 15.36 46.08 20.48 92.16 15.36 143.36 0 10.24-5.12 25.6-5.12 35.84-5.12 10.24-5.12 25.6-10.24 35.84-5.12 10.24-10.24 20.48-15.36 35.84-15.36 30.72-35.84 61.44-61.44 92.16l-25.6 25.6c-10.24 10.24-20.48 15.36-30.72 25.6-20.48 15.36-40.96 25.6-61.44 35.84-10.24 5.12-20.48 10.24-35.84 15.36-20.48 10.24-46.08 15.36-71.68 15.36-10.24 0-25.6 5.12-35.84 5.12h-15.36z" p-id="6540"></path></svg>