<svg xmlns="http://www.w3.org/2000/svg" width="27" height="27" viewBox="0 0 27 27" fill="none">

<path d="M14.6686 0.320333C12.4026 3.57033 10.6971 7.6714 12.0452 11.66C13.5008 15.9622 16.7499 19.4054 14.7722 24.2203C14.4927 24.8997 14.0572 25.6688 13.6546 26.3127H16.1482C16.5515 25.6688 16.9854 24.8997 17.2653 24.2203C19.2439 19.4054 15.9936 15.9622 14.5383 11.66C13.1899 7.6714 14.8956 3.57033 17.1611 0.320333H14.6686Z" fill="black"/>
<path d="M9.33314 26.3127H11.8262C12.2301 25.6688 12.6646 24.8997 12.9442 24.2203C14.9225 19.4051 11.6724 15.9622 10.2168 11.66C8.86911 7.6714 10.5742 3.57033 12.8397 0.320333H10.3469C8.08022 3.57033 6.37512 7.6714 7.72468 11.66C9.17876 15.9622 12.4285 19.4051 10.4502 24.2203C10.1716 24.8997 9.73609 25.6688 9.33314 26.3127Z" fill="black"/>
<path d="M8.62213 24.2203C10.6013 19.4055 7.35098 15.9625 5.89537 11.6603C4.54764 7.67142 6.25304 3.57035 8.51881 0.32036H0V26.3127H7.50565C7.90861 25.6685 8.34316 24.8997 8.62213 24.2203Z" fill="black"/>
<path d="M18.9895 0.320333C16.724 3.57033 15.0186 7.6714 16.3664 11.66C17.8223 15.9622 21.0711 19.4054 19.0931 24.2203C18.8142 24.8997 18.3787 25.6688 17.976 26.3127H25.1322V0.320333H18.9895Z" fill="black"/>
</svg>