<svg xmlns="http://www.w3.org/2000/svg" xmlns:xlink="http://www.w3.org/1999/xlink" version="1.1" id="Livello_1" x="0px" y="0px" viewBox="0 0 20 20" style="enable-background:new 0 0 20 20;" xml:space="preserve">
<path d="M13.1,5C9.1,2.8,4,4.3,1.9,8.4C1.4,9.1,1.2,9.9,1,10.7c0.2-4.6,4.2-8.2,8.8-8c4.6,0.2,8.2,4.2,8,8.8c0,0.9-0.2,1.7-0.5,2.5  C18.1,10.5,16.4,6.8,13.1,5z"/>
<path d="M17,11c-1.1-4.1-5.2-6.5-9.3-5.4s-6.5,5.2-5.4,9.3c0.4,1.4,1.1,2.6,2.1,3.6c0.3,0.2,0.6,0.5,0.8,0.7  c-2.8-2.9-2.6-7.6,0.3-10.3c2.7-2.5,6.9-2.7,9.7-0.3l0.2,0.2c-0.6,0.2-1.2,0.6-1.6,1.1c-0.4-0.9-1.3-1.4-2.3-1.2c-1,0-2,0.4-2.7,1.1  l0,0v-1H6.7v6.7h2.2v-3.6c0-0.8,0.6-1.5,1.4-1.5c0.1,0,0.2,0,0.2,0c0.6,0,1.3,0.2,1.3,1.1v4H14v-3.6c0-0.8,0.6-1.5,1.4-1.5  c0.1,0,0.2,0,0.2,0c0.5,0,0.9,0.2,1.2,0.6L17,11z"/>
<path d="M18.5,6.6c-1.9-4.7-7.3-7-12-5C6.1,1.7,5.8,1.9,5.4,2.1c4.7-2,10.1,0.1,12.1,4.8c1,2.3,1,4.8,0.1,7.1  c-0.2,0.5-0.4,1-0.7,1.4C18.9,12.9,19.5,9.6,18.5,6.6L18.5,6.6z"/>
</svg>