<svg t="1713406410910" class="icon" viewBox="0 0 1024 1024" version="1.1" xmlns="http://www.w3.org/2000/svg" p-id="9357" width="200" height="200"><path d="M960 469.333333H554.666667v-42.666666h192a21.333333 21.333333 0 0 0 21.333333-21.333334V149.333333a21.333333 21.333333 0 0 0-21.333333-21.333333H277.333333a21.333333 21.333333 0 0 0-21.333333 21.333333v256a21.333333 21.333333 0 0 0 21.333333 21.333334h192v42.666666H64a21.333333 21.333333 0 0 0 0 42.666667h896a21.333333 21.333333 0 0 0 0-42.666667zM533.333333 810.666667h362.666667v64a21.333333 21.333333 0 0 0 42.666667 0V554.666667H533.333333z m64-149.333334a21.333333 21.333333 0 0 1 42.666667 0v42.666667a21.333333 21.333333 0 0 1-42.666667 0zM85.333333 874.666667a21.333333 21.333333 0 0 0 42.666667 0v-64h362.666667V554.666667H85.333333z m298.666667-213.333334a21.333333 21.333333 0 0 1 42.666667 0v42.666667a21.333333 21.333333 0 0 1-42.666667 0z" fill="#646464" p-id="9358"></path></svg>