<svg t="1713852514890" class="icon" viewBox="0 0 1414 1024" version="1.1" xmlns="http://www.w3.org/2000/svg" p-id="10021" width="200" height="200"><path d="M1374.315789 13.473684c0-13.473684-13.473684-13.473684-13.473684-13.473684H229.052632c-40.421053 13.473684-53.894737 40.421053-53.894737 80.842105v148.210527h53.894737v-13.473685V67.368421c0-13.473684 0-13.473684 26.947368-13.473684h1091.368421c26.947368 0 26.947368 0 26.947368 13.473684v660.210526c0 26.947368 0 26.947368-26.947368 26.947369H552.421053v148.210526h134.736842v53.894737h-107.789474c-26.947368 0-26.947368 0-26.947368 13.473684v26.947369c0 13.473684 0 26.947368 26.947368 26.947368h512s13.473684-13.473684 13.473684-26.947368v-13.473685c0-26.947368 0-26.947368-26.947368-26.947368H929.684211v-40.421053-13.473684h417.68421c40.421053 0 67.368421-26.947368 67.368421-67.368421V67.368421c0-26.947368-13.473684-40.421053-40.421053-53.894737zM794.947368 848.842105c-13.473684 0-26.947368-13.473684-26.947368-40.421052 0-13.473684 13.473684-26.947368 26.947368-26.947369 26.947368 0 40.421053 13.473684 40.421053 26.947369 0 26.947368-13.473684 40.421053-40.421053 40.421052zM431.157895 282.947368H53.894737c-26.947368 0-40.421053 0-53.894737 26.947369v673.68421c13.473684 26.947368 26.947368 40.421053 53.894737 40.421053h377.263158c13.473684 0 26.947368 0 40.421052-13.473684 13.473684 0 26.947368-26.947368 26.947369-40.421053V431.157895c0-26.947368-13.473684-67.368421 0-94.31579 0-26.947368-26.947368-53.894737-67.368421-53.894737z m-229.052632 40.421053h94.31579v13.473684h-107.789474c0-13.473684 0-13.473684 13.473684-13.473684z m40.421053 660.210526c-13.473684 0-26.947368 0-26.947369-13.473684s13.473684-26.947368 26.947369-26.947368 26.947368 13.473684 26.947368 26.947368-13.473684 13.473684-26.947368 13.473684z m202.105263-53.894736H40.421053V363.789474h404.210526v565.894737z" p-id="10022"></path></svg>