<?xml version="1.0" standalone="no"?><!DOCTYPE svg PUBLIC "-//W3C//DTD SVG 1.1//EN" "http://www.w3.org/Graphics/SVG/1.1/DTD/svg11.dtd"><svg class="icon" width="200px" height="200.00px" viewBox="0 0 1024 1024" version="1.1" xmlns="http://www.w3.org/2000/svg"><path d="M617.728 635.008a173.226667 173.226667 0 0 1-93.312-16.981333 61.354667 61.354667 0 0 1-22.869333-43.093334 9.429333 9.429333 0 0 0-9.642667-9.386666 2004.352 2004.352 0 0 0-40.533333 0 9.045333 9.045333 0 0 0-9.856 7.936 99.84 99.84 0 0 0 32.128 78.677333c27.306667 21.333333 60.458667 33.792 95.061333 35.797333 36.053333 4.181333 72.533333 2.602667 108.074667-4.608a133.418667 133.418667 0 0 0 71.594666-38.570666 99.84 99.84 0 0 0 16.896-95.189334 79.744 79.744 0 0 0-52.48-46.72c-54.613333-19.2-113.706667-17.706667-169.386666-32.298666-9.685333-2.986667-21.504-6.314667-25.813334-16.554667a36.437333 36.437333 0 0 1 12.117334-40.746667 109.653333 109.653333 0 0 1 57.6-14.336 173.653333 173.653333 0 0 1 80.341333 11.52 61.269333 61.269333 0 0 1 29.312 42.325334 10.410667 10.410667 0 0 0 9.728 10.069333c13.397333 0.256 26.794667 0.042667 40.234667 0.085333a9.685333 9.685333 0 0 0 10.538666-7.168 103.808 103.808 0 0 0-50.645333-89.856 250.88 250.88 0 0 0-137.301333-21.034666 149.589333 149.589333 0 0 0-92.842667 37.333333 92.757333 92.757333 0 0 0-18.517333 96.512 82.261333 82.261333 0 0 0 51.968 45.312c54.485333 19.669333 114.176 13.354667 169.173333 30.762667 10.666667 3.626667 23.168 9.216 26.453333 21.12a42.282667 42.282667 0 0 1-11.52 40.362666 126.72 126.72 0 0 1-76.501333 18.730667z m248.277333-360.32c-106.325333-60.16-212.693333-120.234667-319.104-180.266667a71.594667 71.594667 0 0 0-69.845333 0L159.146667 273.962667a65.792 65.792 0 0 0-34.346667 57.258666v361.6a66.261333 66.261333 0 0 0 35.669333 57.813334c30.421333 16.554667 59.989333 34.816 91.008 50.261333a130.645333 130.645333 0 0 0 116.821334 3.242667 90.794667 90.794667 0 0 0 42.453333-81.962667c0.213333-119.338667 0-238.677333 0.085333-357.973333a9.386667 9.386667 0 0 0-8.832-10.88 1773.013333 1773.013333 0 0 0-40.661333 0 8.96 8.96 0 0 0-9.728 9.088c-0.170667 118.570667 0.042667 237.141333-0.085333 355.712a40.106667 40.106667 0 0 1-26.026667 37.717333 65.365333 65.365333 0 0 1-52.906667-7.082667l-84.565333-47.786666a10.112 10.112 0 0 1-5.76-10.026667V333.098667a11.050667 11.050667 0 0 1 6.698667-11.093334c105.642667-59.52 211.2-119.04 316.8-178.645333a11.008 11.008 0 0 1 12.458666 0l316.842667 178.56a11.178667 11.178667 0 0 1 6.656 11.178667v357.845333a10.325333 10.325333 0 0 1-5.717333 10.154667 207049.216 207049.216 0 0 1-312.192 176.213333c-4.949333 2.730667-10.837333 7.210667-16.64 3.84-27.306667-15.445333-54.186667-31.488-81.408-47.061333a8.789333 8.789333 0 0 0-9.813334-0.597334c-11.946667 7.04-24.533333 12.928-37.632 17.578667-5.888 2.389333-13.141333 3.072-17.194666 8.533333 5.205333 5.632 11.434667 10.112 18.432 13.226667 31.786667 18.432 63.573333 36.821333 95.402666 55.168a69.546667 69.546667 0 0 0 70.613334 1.962667c105.984-59.733333 211.968-119.552 317.952-179.370667a66.346667 66.346667 0 0 0 35.669333-57.770667V331.221333a65.706667 65.706667 0 0 0-33.194667-56.533333z" fill="#ffffff" /></svg>