<svg t="1713889134796" class="icon" viewBox="0 0 1024 1024" version="1.1" xmlns="http://www.w3.org/2000/svg" p-id="4344" width="200" height="200"><path d="M670.293333 752.213333a42.453333 42.453333 0 0 1-36.266666-64.426666C665.6 634.026667 682.666667 573.44 682.666667 512s-17.066667-122.026667-49.066667-175.36c-11.946667-20.053333-5.546667-46.506667 14.506667-58.453333a42.453333 42.453333 0 0 1 58.453333 14.506666C746.666667 359.253333 768 435.2 768 512s-21.333333 152.746667-61.013333 219.306667c-8.106667 13.226667-22.186667 20.906667-36.693334 20.906666zM816.64 839.68a42.453333 42.453333 0 0 1-36.266667-64.426667c48.213333-79.786667 73.386667-170.666667 73.386667-263.253333s-25.173333-183.04-73.386667-263.253333a42.410667 42.410667 0 1 1 72.533334-43.946667C909.226667 298.24 938.666667 404.48 938.666667 512s-29.44 213.76-85.76 307.2c-7.68 13.226667-21.76 20.48-36.266667 20.48zM499.626667 921.6c-14.08 0-28.16-5.546667-38.826667-16.213333l-168.96-168.96a36.437333 36.437333 0 0 0-26.453333-11.093334H170.666667c-70.4 0-128-57.6-128-128v-170.666666c0-70.4 57.6-128 128-128h94.72c10.24 0 19.626667-3.84 26.88-11.093334l168.96-168.96c15.786667-15.786667 39.253333-20.48 59.733333-11.946666 20.48 8.533333 33.706667 28.586667 33.706667 50.773333v709.12c0 22.186667-13.226667 42.24-33.706667 50.773333-6.826667 2.56-14.08 4.266667-21.333333 4.266667z m21.76-76.373333zM170.666667 384c-23.466667 0-42.666667 19.2-42.666667 42.666667v170.666666c0 23.466667 19.2 42.666667 42.666667 42.666667h94.72c32.853333 0 64 12.8 87.466666 36.266667L469.333333 793.173333V230.826667L352.426667 347.733333C328.96 371.2 298.24 384 265.386667 384H170.666667z" p-id="4345"></path></svg>