<svg t="1713780830368" class="icon" viewBox="0 0 1024 1024" version="1.1" xmlns="http://www.w3.org/2000/svg" p-id="4276" width="200" height="200"><path d="M-70.54222222-70.54222222m209.7152 0l745.65404444 0q209.7152 0 209.7152 209.7152l0 745.65404444q0 209.7152-209.7152 209.7152l-745.65404444 0q-209.7152 0-209.7152-209.7152l0-745.65404444q0-209.7152 209.7152-209.7152Z" fill="#FFFFFF" p-id="4277"></path><path d="M735.94088107 113.77413689l156.40093582 76.51109546c23.68616675 12.09357653 26.97170489 20.80840818 26.97170489 33.33306596l0.68739982 575.9827968c0 15.36746382-8.30705209 21.41425209-31.20096142 34.31173689l-152.27653689 76.32468195c-6.34971022 2.95931449-11.4294784 6.55942542-49.46948551 6.55942543 0 0 32.9252864 0.27962027 32.9252864-26.02798649v-754.20576427a28.6261248 28.6261248 0 0 0-27.46104036-29.31352462c33.72919467 0 43.42269725 6.52447289 43.42269725 6.52447289z" fill="#4B9AE9" p-id="4278"></path><path d="M115.31204835 626.94723129a33.2398592 33.2398592 0 0 0 0 44.3547648s39.9507456 37.1195904 51.72974934 47.76846222 29.24361955 5.82542222 40.55658951-2.70299591 512.3342336-390.99068871 512.3342336-390.99068871v-188.81358507a28.5212672 28.5212672 0 0 0-27.46104035-29.31352462 20.61034382 20.61034382 0 0 0-14.03926756 6.11669333z" fill="#2A63A4" p-id="4279"></path><path d="M167.16995698 306.91018525a26.36586098 26.36586098 0 0 1 36.92152604 0l515.899392 390.95573617v192.91468231c0 26.45906773-32.97188978 25.98138311-32.97188977 25.98138312a19.35205262 19.35205262 0 0 1-11.51103432-6.30310685l-564.08728462-516.70330027a25.38719005 25.38719005 0 0 1 0-35.89625173z" fill="#3478C6" p-id="4280"></path></svg>