<svg t="1713191674013" class="icon" viewBox="0 0 1024 1024" version="1.1" xmlns="http://www.w3.org/2000/svg" p-id="6387" width="200" height="200"><path d="M421.859533 38.486426c-6.414746 6.509568 6.491955 0.900096-13.605683 11.055513-7.291494 3.683738-9.30775 2.634752-15.599821 4.531405-15.852339 4.776346-12.636979 6.232269-28.004967 7.742259l-16.656179 6.125773c-21.747507 2.541363-25.674957 15.757517-46.916403 23.127859 0 11.342848 3.017114 9.571738-7.559987 7.12233 3.469312 10.503987 6.159565 9.536717-4.299367 6.303744 3.257754 9.905971 4.782285 8.202035-5.016985 4.646707 4.006093 10.715546 3.75808 6.550323-7.691264 3.161293l-62.735155 65.531904c2.211635 18.520678 1.655808 8.349286-4.25554 11.253965l-11.035033 14.658764c-1.944781 14.69993-3.206758 12.638413-9.437594 30.12178-1.763942 4.947149-3.36425 11.355955-6.156493 15.779225-6.798541 10.766746-0.843366 2.350285-10.253107 9.601024l0.986112 3.867443c-2.197094 15.131648 2.417459 1.709875-3.218227 15.325799-4.220518 10.194739-1.817805 4.799693-8.64256 10.17856 1.479475 36.600627-7.158784 72.989696-1.984102 119.672832 5.434368 49.030349 21.660262 66.857984 26.067558 101.013504 22.844621 18.597888 19.890381 32.5376 38.117786 51.119309 13.423206 13.683098 30.90944 26.39872 38.434406 43.696742 9.320858-2.11968 7.882547-4.860928 7.882547 3.247514 9.330893 2.071552 10.473267 0.853402 18.294375 6.748774 13.58377 10.241434 4.016333 2.57065 10.241433 13.682893 27.679539-1.345126 41.867264 14.219878 67.227034 13.122765 30.175642 0.135782 59.853824 2.19136 90.220749-0.525108 26.096435-2.33431 47.94921-10.091315 74.855628-14.478131l9.850266 1.05472c23.692493-27.765555 28.098355-9.326592 35.28192-36.542259-0.799539-11.433165-4.31104-10.4704 5.440102-8.228045l5.139661-15.220531c4.289126-25.199411-0.437658 3.863142 4.165223-18.028954 1.447117-6.88599 1.641267-7.987405 2.382233-15.068979-2.287411-0.992051-0.36311-8.50391-30.260224-1.988403-15.192883 3.311616-53.107917 20.705894-85.473485 6.655386-16.864666-7.322214-0.679731 3.334963-10.975232-9.63154-34.738995-6.794035-67.815014-34.073805-76.223897-59.786854-7.5264-5.817958-3.304448-0.900096-9.644851-8.993997-0.727859-0.927744-5.294285-8.941568-5.721703-9.866445-6.972006-15.111168-3.336397-3.731866-6.131712-23.333478-4.325581-43.374182-8.010752-78.247526-5.00695-124.736512 3.613696-55.94112 17.907917-55.987814 30.978048-93.73655l11.05408-18.441831c19.925402-21.401805 17.57225-21.747712 36.962304-27.552563 100.128154-58.64448 191.629517 17.340416 207.815885 110.240973 10.429645 59.853824 12.4416 101.039718 10.845388 168.586445-1.349427 57.14903-21.620736 126.704435-23.339212 148.119552-3.711386 18.516173-4.354867 11.761459-9.80521 29.214105-8.518451 27.276902-14.01856 37.155021-34.279424 61.635175-7.962624 11.787878-15.964774 22.782157-24.118477 34.30871-9.972941 14.097408-18.39657 19.892019-25.330688 33.408614-0.884122 1.191936-2.259763 1.48521-2.777702 3.480986-0.596787 2.30359-4.807066 5.100134-5.80649 6.055731l-60.672205 58.046464c-23.438541 19.147776-36.431462 34.967962-62.621286 50.413363l-29.489971 18.67817-13.133005 2.676941c-0.779059 1.410867-1.790157 2.003149-2.281677 4.261478-1.92 8.817459-17.258701 15.945728-23.333478 18.978611-1.048986 0.523878-2.499174 1.041613-3.551027 1.587405-18.69271 9.695642-13.604045 7.74656-19.414836 18.011341l19.648308 11.105075c5.896806 21.591654-4.106854-10.098483 2.901811 17.283482 21.594317 13.561856 17.913651 20.685619 34.210816 29.657702 25.733325 9.990554 71.293133-18.151424 97.312358-25.442918l15.051367-13.623091c9.28727-5.221376 15.227904-6.247014 24.497766-9.159066l17.448141-3.02121c0.904602-1.164288 2.21184-4.455424 2.690253-3.510067 0.463872 0.913203 2.01769-2.666906 2.669772-3.346841 15.471616-16.145408 13.402931-12.636774 28.410471-16.09298l11.519385-3.197747c9.352806-14.788813 10.512794-15.058739 29.494272-23.216947l-0.418611 0.99799c1.232691-0.8448 3.151258-3.512934 3.733299-2.481561l139.627316-130.963047c0.906035-0.713523 2.621645-1.88928 3.37879-2.468454 0.781926-0.598221 2.340045-1.680589 3.488154-2.55017 4.204544-16.990208 1.161421-5.847245 12.406579-21.045862 6.611558-8.937267 8.314061-12.851405 14.229913-22.021939 7.96119-12.342272 19.330253-23.495475 21.25312-42.903143l5.354087-12.222464c0.520806-1.08544 1.200742-2.369331 1.746329-3.457638l22.278759-36.572979-2.613043-3.070771 25.399296-81.77664c0.341402-2.115379 1.943347-2.122752 2.923724-3.176039l-4.211916-19.533005c0.67543-31.067136 10.908262-52.314317 9.726566-88.858214-0.926515-28.674458-10.641203-56.670413-9.765888-83.554918 5.292851-23.889306-2.296218-34.254643-2.624512-58.45033-6.327296-4.734157-4.385382-1.34656-9.113805-9.466675-7.664845-13.159219-2.471322-3.110502-3.572736-14.969856l-14.276608-45.422387c-7.622861-6.17984-4.172595-2.113946-9.857843-8.560845-0.812646-0.92201-1.793024-2.004378-2.55017-3.003802l-9.013043-20.040704c-15.684403-28.70231-58.717184-74.006528-91.367219-87.612211-11.078861 0.207258-10.003661 3.397837-7.094682-6.372352-9.77449 2.628813-8.98519 5.527552-6.6859-3.748045-18.18665-2.275738-15.414682-5.860352-31.157658-9.738035-6.025216-1.483571-9.824051-0.248013-16.610918-3.180339-24.830157-10.728653-3.651584 0.937984-13.725082-12.140954-18.134016-0.917504-24.05417-7.262208-47.9232-10.126131-19.683328-2.361958-35.582362-4.610048-56.739021-5.187789-37.049958-1.012531-77.935411 0.729498-111.860326 4.550247z" fill="#d81e06" p-id="6388"></path></svg>