<?xml version="1.0" standalone="no"?><!DOCTYPE svg PUBLIC "-//W3C//DTD SVG 1.1//EN" "http://www.w3.org/Graphics/SVG/1.1/DTD/svg11.dtd"><svg class="icon" width="200px" height="200.00px" viewBox="0 0 1024 1024" version="1.1" xmlns="http://www.w3.org/2000/svg"><path d="M22.624 570.128c16.872-0.624 28.904-4.992 36.096-13.128 4.056-4.688 6.872-10.464 8.44-17.344 0.624-2.184 0.936-4.528 0.936-7.032l0.472-4.688V439.344c0-6.872 3.432-10.312 10.312-10.312 6.872 0 10.312 3.44 10.312 10.312v95.16c-0.632 5.936-1.872 11.568-3.752 16.872-2.504 7.504-6.256 14.064-11.248 19.688-11.248 12.184-28.128 18.752-50.624 19.688h-1.88c-6.88 0-10.312-3.432-10.312-10.312 0-7.184 3.432-10.784 10.312-10.784l0.936 0.472zM118.248 560.28c-0.312-15.304 6.72-25.624 21.096-30.936l17.344-3.752 7.032-0.936 5.624-0.472c-1.256-9.68-6.72-16.248-16.408-19.688-9.064-3.432-15.16-2.648-18.28 2.344 3.432 1.256 5.312 3.6 5.624 7.032 0.936 5.624-1.408 8.752-7.032 9.376-5.32 0.936-8.44-1.408-9.376-7.032v-4.688c1.248-10.624 9.064-17.648 23.44-21.096 25-5.624 40.152 9.536 45.472 45.472 1.56 10.944 1.56 19.848 0 26.72l1.872 9.84 3.28 7.032c1.56 1.256 3.28 0.632 5.16-1.872 1.872-2.184 2.816-4.376 2.816-6.56l1.872-0.472c3.432 8.44-0.632 14.064-12.184 16.872-4.064 1.256-7.192 0.936-9.376-0.936l-4.216-6.56-8.44 5.624-8.44 3.28-5.624 1.408c-8.752 1.248-16.568 0.16-23.44-3.28l-2.816-1.872-6.096-5.16c-5.624-5.624-8.592-12.184-8.904-19.688z m20.16-11.72c-3.128 4.376-3.128 9.688 0 15.936 3.432 6.256 8.744 9.84 15.936 10.784l6.56-0.472c7.504-2.816 11.872-8.12 13.128-15.936l0.472-10.312-1.408-9.84c-0.312-3.12-0.784-4.528-1.408-4.216-5.936 0-11.72 0.936-17.344 2.816-7.192 2.808-12.504 6.552-15.936 11.24zM307.624 490.904c6.872 3.44 8.592 8.6 5.16 15.472l-33.28 75.936c-3.44 6.88-8.6 8.592-15.472 5.16a13.5464 13.5464 0 0 1-5.16-5.16l-2.344-3.752-27.656-74.064c-2.504-7.184-0.16-12.024 7.032-14.528 7.504-2.496 12.496-0.152 15 7.032l18.752 50.16 22.504-51.096c3.432-6.872 8.584-8.592 15.464-5.16zM339.504 560.28c-0.312-15.304 6.72-25.624 21.096-30.936l17.344-3.752 7.032-0.936 5.624-0.472c-1.256-9.68-6.72-16.248-16.408-19.688-9.064-3.432-15.16-2.648-18.28 2.344 3.432 1.256 5.312 3.6 5.624 7.032 0.936 5.624-1.408 8.752-7.032 9.376-5.32 0.936-8.44-1.408-9.376-7.032v-4.688c1.248-10.624 9.064-17.648 23.44-21.096 25-5.624 40.152 9.536 45.472 45.472 1.56 10.944 1.56 19.848 0 26.72l1.872 9.84 3.28 7.032c1.56 1.256 3.28 0.632 5.16-1.872 1.872-2.184 2.816-4.376 2.816-6.56l1.872-0.472c3.432 8.44-0.632 14.064-12.184 16.872-4.064 1.256-7.192 0.936-9.376-0.936l-4.216-6.56-8.44 5.624-8.44 3.28-5.624 1.408c-8.752 1.248-16.568 0.16-23.44-3.28l-2.816-1.872-6.096-5.16c-5.624-5.624-8.6-12.184-8.904-19.688z m20.152-11.72c-3.128 4.376-3.128 9.688 0 15.936 3.432 6.256 8.744 9.84 15.936 10.784l6.56-0.472c7.504-2.816 11.872-8.12 13.128-15.936l0.472-10.312-1.408-9.84c-0.312-3.12-0.784-4.528-1.408-4.216-5.936 0-11.72 0.936-17.344 2.816-7.192 2.808-12.504 6.552-15.936 11.24zM500.28 449.656c-4.376 0-8.44 1.872-12.184 5.624-5 5.32-7.192 12.352-6.56 21.096 0.624 15.312 11.4 23.128 32.344 23.44H525.6c12.808 0 23.44 3.912 31.872 11.72 9.68 9.064 14.216 21.256 13.592 36.56-0.632 17.504-6.88 29.528-18.752 36.096-4.376 2.816-9.688 4.688-15.936 5.624-4.376 0.632-9.376 0.936-15 0.936H482c-6.88 0-10.312-3.592-10.312-10.784 0-6.872 3.432-10.312 10.312-10.312h32.344c22.504-0.304 34.056-7.808 34.688-22.504 0.624-11.248-3.128-18.904-11.248-22.968-2.504-1.56-5.472-2.496-8.904-2.816l-3.28-0.472-15.472-0.472c-5 0-9.688-0.472-14.064-1.408-6.256-1.248-11.72-3.12-16.408-5.624-12.816-7.184-19.536-19.056-20.16-35.624-0.632-15.304 4.216-27.656 14.528-37.032 8.744-8.44 18.752-12.496 30-12.184h49.688c6.872 0 10.312 3.44 10.312 10.312 0 7.192-3.44 10.784-10.312 10.784h-53.432zM633.408 590.752c-9.064-0.304-17.192-3.28-24.376-8.904-8.44-6.248-13.44-15-15-26.248l-1.408-11.72c0-14.688 3.432-26.872 10.312-36.56 5.624-7.808 12.808-13.128 21.56-15.936 2.816-0.624 5.936-1.088 9.376-1.408h5.624c9.064 0 17.032 2.504 23.904 7.504 8.12 5.936 12.968 14.064 14.528 24.376l0.472 4.688 0.472 2.816c0 7.504-3.912 11.248-11.72 11.248-5 0-8.44-2.184-10.312-6.56v-0.936l-0.936-3.752v-0.936l-0.472-4.688-1.408-5.624-2.344-5.16c-2.504-4.056-5.784-6.56-9.84-7.504h-7.032c-9.064 1.568-14.848 6.88-17.344 15.936l-1.872 11.72v11.248l1.872 12.184c2.496 10.008 6.872 15.936 13.128 17.816 2.184 0.632 4.528 0.784 7.032 0.472 13.128-0.624 21.56-4.056 25.312-10.312 2.496-3.432 5.16-4.056 7.968-1.872 2.496 2.192 2.816 4.848 0.936 7.968-5.936 9.688-13.752 15.784-23.44 18.28-5.616 1.552-10.624 2.168-14.992 1.864zM744.504 509.656c-6.88-2.816-14.224-0.624-22.032 6.56v63.752c-0.312 7.192-3.752 10.784-10.312 10.784-6.88 0-10.312-3.592-10.312-10.784v-79.216c0-7.184 3.432-10.784 10.312-10.784 4.992 0 8.28 2.504 9.84 7.504 2.184-1.56 4.84-2.816 7.968-3.752 4.056-1.248 8.592-1.872 13.592-1.872 4.056 0.312 8.12 1.256 12.184 2.816 4.376 1.256 6.56 4.376 6.56 9.376 0 6.256-2.976 9.376-8.904 9.376-2.192 0-4.064-0.776-5.624-2.344l-3.272-1.416zM804.968 429.032c7.808 0 11.72 3.912 11.72 11.72 0 7.504-3.912 11.248-11.72 11.248-7.816 0-11.72-3.752-11.72-11.248 0-7.808 3.904-11.72 11.72-11.72z m10.312 151.408c-0.312 6.88-3.912 10.312-10.784 10.312-6.88 0-10.312-3.432-10.312-10.312v-93.28c0-7.184 3.432-10.784 10.312-10.784 6.872 0 10.464 3.44 10.784 10.312v93.752zM898.248 489.504c8.12 0.312 15.472 2.656 22.032 7.032 7.504 5.32 11.56 12.656 12.184 22.032l0.936 9.376c-0.936 12.184-5 22.192-12.184 30-5.624 6.56-12.656 10.944-21.096 13.128-4.688 1.256-10.008 1.568-15.936 0.936l-7.032-0.472-6.096-1.408v56.248c0 6.248-3.6 9.376-10.784 9.376-7.504 0-11.248-3.128-11.248-9.376V497.936c0-6.248 3.752-9.376 11.248-9.376 6.56 0 10.152 2.976 10.784 8.904l2.344-1.872 5.16-2.816c5.312-2.176 11.872-3.272 19.688-3.272z m-9.84 70.312c10-0.624 16.712-4.84 20.16-12.656 0.936-2.816 1.712-6.096 2.344-9.84l0.472-9.84-0.472-9.84c-1.256-6.56-5.16-10.784-11.72-12.656-4.376-1.248-9.536-0.776-15.472 1.408-5.936 2.192-10.16 4.848-12.656 7.968v36.096l1.872 3.28 3.28 3.28c2.816 2.176 6.872 3.112 12.192 2.8zM1009.344 574.344c4.992 0 7.504 2.344 7.504 7.032 0 3.752-1.872 6.096-5.624 7.032-3.128 1.568-6.408 2.344-9.84 2.344h-1.872c-20.936 0.304-30.936-9.064-30-28.128v-37.968h-6.096c-3.44 0-5.16-1.712-5.16-5.16 0-3.12 1.56-4.688 4.688-4.688h6.56v-16.872c0-5.624 2.816-8.44 8.44-8.44 5.312 0 8.12 2.656 8.44 7.968v17.344h21.096c3.12 0 4.688 1.568 4.688 4.688 0 3.44-1.72 5.16-5.16 5.16h-20.624v34.688c0 10.944 2.496 16.872 7.504 17.816 3.12 0.632 5.936 0.632 8.44 0l2.344-0.936c1.232-1.248 2.8-1.88 4.672-1.88z" fill="#ffffff" /></svg>