<svg t="1713948273145" class="icon" viewBox="0 0 1024 1024" version="1.1" xmlns="http://www.w3.org/2000/svg" p-id="7666" width="200" height="200"><path d="M978.005333 299.818667l-4.394666-9.813334-7.210667 8.021334c-17.408 19.797333-39.594667 34.986667-64.213333 44.202666l-6.784 2.602667 2.816 6.613333a415.786667 415.786667 0 0 1 32 160.384c0 230.613333-187.605333 418.389333-418.389334 418.389334-230.784 0-418.218667-187.605333-418.218666-418.218667 0-230.613333 187.818667-418.389333 418.389333-418.389333 62.592 0 123.008 13.610667 179.2 40.405333l6.613333 3.2 2.816-6.613333a160.725333 160.725333 0 0 1 47.189334-61.994667l8.405333-6.784-9.6-4.992A507.946667 507.946667 0 0 0 512.042667 0.042667c-282.410667 0-512 229.589333-512 512s229.589333 512 512 512 512-229.589333 512-512c0-73.813333-15.402667-145.194667-45.994667-212.181334zM512 278.613333A233.642667 233.642667 0 0 0 278.613333 512 233.642667 233.642667 0 0 0 512 745.386667 233.642667 233.642667 0 0 0 745.386667 512 233.770667 233.770667 0 0 0 512 278.613333z m441.386667-85.632a106.410667 106.410667 0 1 1-212.821334 0 106.410667 106.410667 0 0 1 212.821334 0z" p-id="7667"></path></svg>