<svg t="1713179786744" class="icon" viewBox="0 0 1024 1024" version="1.1" xmlns="http://www.w3.org/2000/svg" p-id="22538" width="200" height="200"><path d="M138.666667 762.794667V597.333333A144.256 144.256 0 0 1 298.666667 437.333333h181.333333V341.333333H469.333333a85.333333 85.333333 0 0 1-85.333333-85.333333V170.666667a85.333333 85.333333 0 0 1 85.333333-85.333334h85.333334a85.333333 85.333333 0 0 1 85.333333 85.333334v85.333333a85.333333 85.333333 0 0 1-85.333333 85.333333h-10.624v96H725.333333A144.256 144.256 0 0 1 885.290667 597.333333v165.461334a96 96 0 0 1 64 90.538666 96 96 0 0 1-96 96 96 96 0 0 1-96-96 96 96 0 0 1 64-90.538666V597.333333c0-67.413333-28.629333-96-96-96h-181.333334v261.461334a96.042667 96.042667 0 0 1 64 90.538666 96 96 0 0 1-96 96A96.042667 96.042667 0 0 1 415.957333 853.333333a96.042667 96.042667 0 0 1 64-90.538666V501.333333H298.666667c-67.413333 0-96 28.586667-96 96v165.461334A96.042667 96.042667 0 0 1 266.666667 853.333333 96 96 0 0 1 170.666667 949.333333 96.042667 96.042667 0 0 1 74.666667 853.333333a96.042667 96.042667 0 0 1 64-90.538666z" fill="#252525" p-id="22539"></path></svg>