<svg t="1713536356761" class="icon" viewBox="0 0 1024 1024" version="1.1" xmlns="http://www.w3.org/2000/svg" p-id="8719" width="200" height="200"><path d="M511.3 64.2c-247.4 0-448 200.6-448 448s200.6 448 448 448 448-200.6 448-448-200.5-448-448-448zM733 639.1c26.2 26.2 26.2 68.6 0 94.8-13.1 13.1-30.2 19.6-47.4 19.6s-34.3-6.5-47.4-19.6L511.3 607 384.4 733.9c-13.1 13.1-30.2 19.6-47.4 19.6s-34.3-6.5-47.4-19.6c-26.2-26.2-26.2-68.6 0-94.8l126.9-126.9-126.8-126.9c-26.2-26.2-26.2-68.6 0-94.8 26.2-26.2 68.6-26.2 94.8 0l126.9 126.9 126.9-126.9c26.2-26.2 68.6-26.2 94.8 0 26.2 26.2 26.2 68.6 0 94.8l-127 126.9L733 639.1z" fill="#c1283d" p-id="8720"></path></svg>