<?xml version="1.0" standalone="no"?><!DOCTYPE svg PUBLIC "-//W3C//DTD SVG 1.1//EN" "http://www.w3.org/Graphics/SVG/1.1/DTD/svg11.dtd"><svg class="icon" width="200px" height="150.04px" viewBox="0 0 1365 1024" version="1.1" xmlns="http://www.w3.org/2000/svg"><path d="M312 32c-65.84 0-120 54.16-120 120v360h80V152c0-22.48 17.52-40 40-40h720c22.48 0 40 17.52 40 40v360h80V152c0-65.84-54.16-120-120-120H312zM32 592v400h80V832h80v160h80V592h-80v160h-80V592H32z m320 0v80h80v320h80V672h80v-80H352z m440 0c-65.84 0-120 54.16-120 120v280h80V712c0-22.48 17.52-40 40-40s40 17.52 40 40v280h80V712c0-22.48 17.52-40 40-40s40 17.52 40 40v280h80V712c0-65.84-54.16-120-120-120-30.72 0-58.64 12.08-80 31.44-20.986-19.357-49.085-31.278-79.967-31.44H792z m360 0v400h160v-80h-80V592h-80z" fill="#ffffff" /></svg>