<svg t="1713413482139" class="icon" viewBox="0 0 1024 1024" version="1.1" xmlns="http://www.w3.org/2000/svg" p-id="24746" width="200" height="200"><path d="M929.2 473.2c-6.7 0-12.8 2.1-17.8 5.8-0.5-3.2-1.1-6.5-1.9-9.7-1.5-6.1-3.7-11.8-6.2-17.1 1.2 0.1 2.4 0.2 3.6 0.2 18.8 0 34-15.2 34-34s-15.2-34-34-34c-17.5 0-31.9 13.2-33.7 30.3-6.7-5.5-13.9-10.5-21.5-15 14.3-5.5 24.5-19.4 24.5-35.6 0-21.1-17.1-38.2-38.1-38.2-21.1 0-38.1 17.1-38.1 38.2 0 4.5 0.8 8.9 2.3 12.9-9.5-3.4-19.1-6.4-28.7-9.3 3.4-5 5.6-11 5.6-17.6 0-17.1-13.8-30.9-30.9-30.9-17.1 0-30.9 13.9-30.9 30.9 0 1.8 0.1 3.4 0.5 5.1-0.5-0.1-1-0.1-1.4-0.2-2.6-1.7-5.5-2.5-8.4-2.5-1.3 0-2.7 0.2-4 0.6-4.4-0.6-8.8-1.3-13.3-1.8 0.4-1.7 0.5-3.4 0.5-5.2 0-14.8-12-26.8-26.8-26.8s-26.8 12-26.8 26.8v0.2c-19.7-1.3-39.4-2-59.1-2.7-5.5-18.1-18.1-33-34.6-41.6l-13.8-74-2.1-11.8c6.5-0.5 12.6-1.3 17.7-2.4 3.1 4.9 8.6 8.1 14.7 8.1 9.7 0 17.7-7.8 17.7-17.6 0-9.7-7.8-17.6-17.7-17.6-6.2 0-11.6 3.2-14.7 8.1-6.3-1.3-13.8-2.3-22.1-2.7l-6.1-33.3c7-2.4 12-8.9 12-16.7 0-9.7-8-17.6-17.6-17.6-9.7 0-17.6 7.8-17.6 17.6 0 8 5.2 14.7 12.5 16.9l-5.9 33.1c-8.3 0.5-15.9 1.3-22.2 2.6-3.1-4.8-8.6-8-14.7-8-9.7 0-17.6 7.8-17.6 17.6S454.3 222 464 222c6.2 0 11.6-3.2 14.7-8 5.2 1.1 11.2 1.9 17.8 2.4l-2.1 11.8L481 302c-16.7 8.4-29.6 23.5-35 41.8-19.7 0.6-39.4 1.4-59.1 2.7v-0.2c0-14.8-12-26.8-26.8-26.8s-26.8 12-26.8 26.8c0 1.8 0.1 3.4 0.5 5.2-4.4 0.6-8.9 1.2-13.3 1.8-1.3-0.4-2.6-0.6-4-0.6-3 0-5.8 1-8.4 2.5-0.5 0.1-1 0.1-1.4 0.2 0.2-1.7 0.5-3.4 0.5-5.1 0-17.1-13.8-30.9-30.9-30.9-17.1 0-30.9 13.9-30.9 30.9 0 6.5 2 12.6 5.5 17.6-9.6 2.7-19.2 5.8-28.7 9.3 1.4-4 2.3-8.4 2.3-12.9 0-21.1-17.1-38.2-38.1-38.2-21.1 0-38.1 17.1-38.1 38.2 0 16.3 10.1 30.2 24.5 35.6-7.6 4.5-14.8 9.5-21.5 15-2.4-17.2-16.7-30.5-34.2-30.5-18.8 0-34 15.2-34 34s15.2 34 34 34c1.2 0 2.4 0 3.6-0.2-2.5 5.3-4.6 11-6.2 17.1-0.8 3.2-1.5 6.5-2 9.7-5-3.7-11.2-5.8-17.7-5.8C77.5 473 64 486.6 64 503.3c0 16.7 13.5 30.3 30.3 30.3 8.4 0 15.9-3.4 21.5-8.9 2.1 6.9 4.9 13.7 8.2 20.2 1.2 2.3 2.4 4.6 3.7 6.8-11 3.3-19.1 13.7-19.1 25.8 0 14.8 12 27 27 27 8.7 0 16.3-4 21.3-10.5 1.8 2.5 3.7 4.9 5.5 7.4 1.5 2.1 3.1 4.2 4.8 6.2-5.5 3.6-9 9.6-9 16.6 0 10.9 8.9 19.8 19.8 19.8 5.6 0 10.6-2.3 14.3-6.1 16.6 19.4 34.1 38 51.2 56.9 1 1.1 1.9 2.1 2.9 3.2l-36.9 12.1c0.5-1.7 0.7-3.3 0.7-5.1 0-10.8-8.8-19.6-19.6-19.6S171 694.2 171 705c0 9.6 6.9 17.6 16 19.2-2 4.6-2.9 10.8 2.4 17 1 1.2 2.1 2.4 3.6 3.6h639.5c8.6-8.9 7.7-16.4 5.2-21.5 7.4-2.9 12.6-10 12.6-18.3 0-10.8-8.8-19.6-19.6-19.6s-19.6 8.8-19.6 19.6c0 1.5 0.2 3.1 0.6 4.5L778 698c1-1.1 1.9-2.1 2.9-3.2 17.1-18.9 34.6-37.5 51.2-56.9 3.6 3.7 8.7 6.1 14.3 6.1 10.9 0 19.8-8.9 19.8-19.8 0-7-3.7-13.2-9-16.6 1.5-2 3.2-4.2 4.8-6.2 1.8-2.5 3.7-4.9 5.5-7.4 5 6.3 12.6 10.5 21.3 10.5 14.8 0 27-12 27-27 0-12.1-8.1-22.4-19.1-25.8 1.3-2.3 2.5-4.5 3.7-6.8 3.3-6.5 6.1-13.3 8.2-20.2 5.5 5.5 13.1 8.9 21.5 8.9 16.7 0 30.2-13.5 30.2-30.3-0.8-16.6-14.3-30.1-31.1-30.1z m-647.5-76.1c15.9 0 28.7 12.8 28.7 28.7 0 15.9-12.8 28.7-28.7 28.7-15.9 0-28.7-12.8-28.7-28.7 0-15.8 12.8-28.7 28.7-28.7z m-5.2 266.6c-8.8-8.8-17.2-17.9-25.5-27.1-17.8-19.6-35-39.9-49.8-61.9-12.2-18.3-20.9-38.5-25.5-60-2.7-12.4-4.5-25.3-0.7-37.7 3.4-11.3 10.8-20.9 19.4-29 7.1-6.8 15.2-12.6 23.8-17.6-1.1 4.3-1.7 8.7-1.7 13.2 0 23.2 15.1 42.8 35.9 49.5-5.5 4.9-9 13.9-9 24.3 0 15.6 8.1 28.1 18.2 28.1 5 0 9.6-3.2 12.8-8.3 1.3 6.4 2.9 12.7 4.9 18.8 0.7 2.1 1.4 4.3 2.3 6.3-6.7 3.1-11.5 12.6-11.5 24 0 13.8 7.2 24.9 16.2 24.9 5.2 0 9.7-3.8 12.7-9.6 1.1 2.3 2.3 4.5 3.3 6.8 1 1.9 1.9 3.9 2.9 5.8-3.3 3.3-5.5 9-5.5 15.4 0 10.2 5.3 18.4 11.9 18.4 3.3 0 6.4-2.1 8.6-5.6 3.9 7.1 8 14 12 21h-55.7v0.3z m92.4 0c-4.6-7.4-9.1-14.8-13.5-22.3-10.7-18.2-21-37.1-29.8-57.5-7.4-17-12.5-35.7-15.3-55.7-1.5-11.5-2.7-23.5-0.4-35 2.1-10.5 6.5-19.5 11.6-27 9.9-14.5 22.3-23.6 34.7-31.9 9.4-6.4 18.9-12 28.6-16.9 7.8-1.5 15.7-3.1 23.5-4.3C385.5 445.2 373 486.5 373 530c0 46 13.9 89.3 39.2 122.1 3.2 4.2 6.5 8.1 9.9 11.8h-53.2v-0.2z m71.8-34c-20.4-26.5-31.6-61.9-31.6-99.9 0-37.9 11.2-73.4 31.6-99.9 5.1-6.7 10.7-12.5 16.6-17.6-8.7 31-13.8 69.6-13.8 111.4 0 49.5 7.2 94.4 19 127.6-7.7-5.7-15.1-13-21.8-21.6z m71.1-3.6c-12.8 0-23.3-10.5-23.3-23.3s10.5-23.3 23.3-23.3 23.3 10.5 23.3 23.3c-0.2 12.9-10.5 23.3-23.3 23.3z m0-78.7c-12.8 0-23.3-10.5-23.3-23.3s10.5-23.3 23.3-23.3 23.3 10.5 23.3 23.3c-0.2 13-10.5 23.3-23.3 23.3z m0-99.9c-12.8 0-23.3-10.5-23.3-23.3s10.5-23.3 23.3-23.3 23.3 10.5 23.3 23.3c-0.2 12.9-10.5 23.3-23.3 23.3z m237.5-50.4c15.9 0 28.7 12.8 28.7 28.7 0 15.9-12.8 28.7-28.7 28.7-15.9 0-28.7-12.8-28.7-28.7 0-15.8 12.8-28.7 28.7-28.7zM560.9 651.4c11.8-33.1 18.9-78 18.9-127.6 0-41.9-5.1-80.5-13.9-111.4 5.9 5 11.5 10.9 16.6 17.6 20.4 26.5 31.6 62 31.6 99.9s-11.2 73.4-31.6 99.9c-6.5 8.6-13.7 15.8-21.6 21.6z m93.7 12.3h-53c3.4-3.7 6.8-7.6 9.9-11.8 25.3-32.8 39.2-76.1 39.2-122.1 0-43.7-12.6-85-35.5-117.2 7.5 1.2 15.1 2.6 22.7 4.2 10.1 5 20 10.7 29.7 17.3 12.2 8.3 24.8 17.6 34.7 31.9 5.1 7.5 9.5 16.4 11.6 27 2.3 11.4 1.2 23.5-0.5 35-2.9 20-8 38.7-15.3 55.7-8.8 20.4-19.2 39.3-29.8 57.5-4.5 7.6-9 15.1-13.7 22.5z m193.3-149c-4.8 21.5-13.3 41.7-25.5 60-14.7 22-31.9 42.4-49.8 61.9-8.3 9.1-16.7 18.3-25.5 27.1h-55.2c4-6.9 8.1-13.9 12-21 2.1 3.4 5.2 5.6 8.6 5.6 6.5 0 11.9-8.2 11.9-18.4 0-6.5-2.1-12.2-5.5-15.4 1-1.9 1.9-3.8 2.9-5.8 1.1-2.3 2.3-4.5 3.3-6.8 3 5.9 7.6 9.6 12.7 9.6 8.9 0 16.2-11.2 16.2-24.9 0-11.3-4.9-20.8-11.5-24 0.7-2.1 1.5-4.2 2.3-6.3 2-6.1 3.7-12.2 4.9-18.8 3.3 5.1 7.8 8.3 12.8 8.3 10 0 18.2-12.6 18.2-28.1 0-10.8-3.9-20.1-9.6-24.8 20.1-7.2 34.4-26.5 34.4-49.1 0-5.1-0.7-10-2.1-14.6 9.4 5.3 18.3 11.5 26.1 19 8.4 8.1 15.8 17.7 19.2 29 3.6 12.1 1.8 25.2-0.8 37.5zM835.2 860.9H188.4c-9.9 0-17.8 8.7-17.8 19.2s8 19.2 17.8 19.2h646.9c9.9 0 17.8-8.6 17.8-19.2-0.1-10.6-8.1-19.2-17.9-19.2zM511.8 850.5h328.5c-31.5-31.5-33-63.3 0-95.7h-657c31.4 31.9 31.8 63.8 0 95.7h328.5z m191.5-58.4l23.8-9.9 23.8 9.9 23.8 9.9-23.6 9.9-23.8 9.9-23.8-9.9-23.8-9.7 23.6-10.1z m-126 0l23.8-9.9 23.8 9.9 23.8 9.9-23.6 9.9-23.8 9.9-23.8-9.9-23.8-9.7 23.6-10.1z m-65.5-6.9c12.1 3.8 20.1 9.7 20.1 16.5s-7.8 12.7-20.1 16.5c-12.2-3.9-20.1-9.9-20.1-16.6 0-6.7 7.8-12.7 20.1-16.4z m-113.2 6.9l23.8-9.9 23.8 9.9L470 802l-23.8 9.7-23.8 9.9-23.8-9.9-23.6-9.9 23.6-9.7z m-126 0l23.8-9.9 23.8 9.9L344 802l-23.8 9.7-23.8 9.9-23.8-9.9-23.6-9.9 23.6-9.7z" p-id="24747"></path></svg>