<?xml version="1.0" standalone="no"?><!DOCTYPE svg PUBLIC "-//W3C//DTD SVG 1.1//EN" "http://www.w3.org/Graphics/SVG/1.1/DTD/svg11.dtd"><svg t="1713168661279" class="icon" viewBox="0 0 1024 1024" version="1.1" xmlns="http://www.w3.org/2000/svg" p-id="4854" xmlns:xlink="http://www.w3.org/1999/xlink" width="200" height="200"><path d="M773.294933 328.8832c-2.359467 1.378133-1.7664 3.1488-0.981333 5.504 6.8864 17.706667 11.8016 36.002133 14.9504 54.685867 3.541333 21.8368 3.541333 43.477333 1.770667 65.506133-1.966933 25.173333-8.064 49.1776-17.309867 72.7808-19.869867 50.944-52.3264 92.842667-94.0288 127.8592-33.634133 28.130133-71.010133 50.3552-111.726933 66.88-4.3264 1.770667-5.704533 3.7376-5.508267 8.456533 2.56 35.997867-5.504 69.632-23.799467 100.714667a176.418133 176.418133 0 0 1-28.130133 35.797333c-3.1488 3.1488-6.493867 4.919467-11.016533 3.345067-4.522667-1.570133-6.685867-4.718933-7.4752-9.437867-3.933867-27.345067-13.179733-52.718933-28.9152-75.733333-18.094933-26.1632-41.506133-45.832533-70.225067-59.208533a169.079467 169.079467 0 0 0-63.534933-15.931734 11.136 11.136 0 0 1-3.541334-0.593066c-3.7376-0.785067-5.9008-2.948267-6.101333-6.882134-0.192-3.933867 1.774933-6.2976 5.316267-7.4752 10.2272-3.1488 20.4544-5.312 30.882133-7.082666 7.082667-1.181867 14.165333-2.1632 21.636267-3.933867-1.770667-0.785067-3.7376-1.5744-5.504-2.359467-41.309867-19.080533-73.770667-47.406933-93.239467-89.109333-11.605333-24.981333-15.543467-50.944-5.12-77.504 0-0.196267 0-0.5888-0.192-0.981333-10.427733-0.785067-20.8512 0-31.274667 0.5888-20.654933 1.378133-40.917333 4.7232-60.586666 11.8016-8.064 2.952533-15.5392 6.690133-22.621867 11.605333-18.688 13.184-21.047467 30.293333-6.690133 48.392533 9.834667 12.3904 22.818133 21.047467 36.394666 28.522667 26.944 14.9504 56.059733 24.392533 85.956267 31.0784l5.312 1.181867c-2.56 3.3408-5.312 0.785067-7.671467 0.392533-28.714667-3.7376-56.6528-10.030933-83.204266-22.229333-16.5248-7.4752-32.064-16.721067-44.654934-30.293334-22.0288-23.995733-18.688-51.733333 8.657067-70.024533 17.109333-11.409067 36.3904-17.1136 56.256-20.8512 22.621867-4.130133 45.243733-5.312 68.061867-3.933867 1.5744 0.196267 3.144533 0.392533 4.3264-1.378133 7.867733-11.409067 18.295467-19.669333 31.4752-26.948267-5.312-0.5888-9.442133-0.981333-13.576534-1.378133-35.601067-3.7376-69.0432-14.357333-100.317866-31.863467-6.4896-3.541333-8.4608-8.4608-5.508267-15.146666 31.0784-71.799467 72.192-136.9088 129.041067-191.3984 16.324267-15.5392 34.423467-28.9152 52.910933-41.698134 10.624-7.278933 23.210667-10.427733 34.816-15.543466 35.413333-15.735467 72.981333-22.818133 111.7312-21.243734 55.863467 2.363733 106.222933 20.2624 149.888 55.867734 0.789333 0.5888 1.578667 1.570133 2.756267 1.373866 0.196267 0.392533 0.392533 0.593067 0.5888 0.981334 0.593067 0.597333 1.181867 1.378133 1.770666 1.9712 9.442133 8.6528 19.669333 16.324267 28.522667 25.570133 1.181867 1.181867 3.1488 1.966933 2.952533 3.541333-76.9152-58.619733-161.693867-81.437867-257.096533-58.619733 39.338667 20.066133 52.522667 62.5536 40.7168 96.384-11.8016 34.624-45.44 56.260267-82.615467 52.522667-17.706667-1.770667-33.045333-9.045333-45.832533-21.44-18.688-18.094933-25.962667-40.324267-23.406933-67.4688-6.493867 6.293333-11.997867 11.605333-17.1136 16.917333-44.258133 46.421333-77.696 99.925333-104.8448 157.559467-1.966933 4.3264-0.981333 5.704533 2.752 7.671466 42.094933 20.066133 86.357333 27.933867 132.778666 23.0144 31.867733-3.345067 62.161067-12.586667 90.286934-27.9296 49.7664-27.345067 85.764267-67.080533 108.189866-119.402666 2.1632-4.919467 5.115733-8.6528 11.2128-8.456534 5.312 0.196267 8.064 2.752 10.423467 9.045334 8.657067 23.4112 11.409067 47.6032 7.867733 72.192-6.097067 43.080533-26.948267 77.504-61.960533 103.466666-10.624 7.867733-22.229333 13.969067-34.619733 18.884267 0.392533 0.593067 0.5888 1.181867 0.981333 1.378133a191.995733 191.995733 0 0 1 27.144533 24.981334c1.378133 1.5744 2.363733 1.378133 3.7376 0.196266a212.096 212.096 0 0 1 10.231467-8.456533c1.378133-1.181867 2.359467-3.1488 5.704533-2.952533-13.184 19.080533-29.312 33.6384-48.5888 44.8512-19.2768 11.208533-40.128 17.309867-63.1424 20.258133 38.9504 30.293333 81.045333 39.5392 127.074134 25.770667 45.832533-13.572267 76.125867-45.047467 94.2208-90.090667 0 2.359467 0.196267 3.3408 0 4.130133-3.1488 18.2912-9.834667 35.4048-20.258134 50.747734-17.706667 25.966933-41.506133 44.061867-71.406933 54.097066-1.962667 0.5888-3.7376 1.1776-4.3264 3.933867-5.115733 25.173333-19.869867 43.669333-41.7024 56.452267-3.7376 2.1632-5.704533 4.522667-6.8864 8.853333-2.555733 9.6384-2.752 9.442133-12.782933 7.867733-6.690133-1.181867-13.376-3.7376-20.2624-2.752-12.194133 1.570133-24.192 1.962667-36.3904 0.785067-6.8864-0.5888-13.572267-2.756267-20.2624-2.952533-13.568-0.196267-27.144533 1.966933-41.3056 4.7232 1.5744 0.785067 2.359467 1.1776 3.345066 1.378133 11.208533 2.555733 22.0288 6.097067 32.059734 11.208533 19.669333 10.0352 39.735467 18.491733 61.376 23.803734 2.555733 0.5888 5.504 0.5888 7.274666 2.1632 2.363733 1.966933-0.196267 5.115733 0.196267 7.671466 0 0.5888 0.200533 1.181867 0.200533 1.770667 0.785067 11.409067 4.718933 22.033067 10.423467 31.671467 8.260267 14.357333 16.328533 28.714667 21.44 44.650666 1.378133 4.522667 2.56 8.853333 4.130133 14.357334 24-31.863467 34.816-66.88 32.6528-106.218667-9.6384 3.933867-17.898667 8.260267-26.551466 13.179733-0.789333-7.278933 1.770667-12.983467 5.704533-18.0992 7.082667-9.245867 16.7168-14.9504 27.3408-19.2768 11.8016-4.718933 23.6032-9.442133 35.208533-14.754133 52.3264-24.584533 96.7808-59.4048 132.386134-105.041067 24.192-31.0784 41.898667-65.3056 52.322133-103.2704 8.260267-29.896533 11.2128-60.386133 9.045333-91.268266-2.158933-34.423467-11.012267-67.2768-24.977066-98.747734-0.593067-1.378133-1.966933-2.756267-1.181867-4.7232 1.378133 0.593067 1.966933 1.966933 2.56 3.1488 6.685867 10.820267 12.586667 21.8368 17.506133 33.442134 0.5888 1.1776 0.5888 4.3264 3.3408 1.962666 1.578667 0.200533 1.770667 0.3968 2.1632 0.593067z m-243.912533 298.794667c-4.330667 0.593067-7.671467 1.378133-11.2128 1.770666-27.541333 1.966933-53.896533-1.962667-78.6816-14.5536-19.2768-9.834667-35.8016-23.0144-49.1776-39.936-2.756267-3.541333-3.541333-7.274667-1.181867-11.4048 2.1632-3.7376 5.312-5.115733 9.642667-4.7232 37.371733 3.541333 71.7952-5.111467 103.662933-24.785066 4.718933-2.948267 4.718933-3.144533 0.981334-7.4752-18.884267-21.832533-42.094933-37.960533-68.650667-48.981334-2.56-0.981333-4.522667-0.981333-6.882133 0.3968-5.508267 3.1488-11.409067 5.9008-16.725334 9.442134-51.925333 34.2272-80.448 82.222933-84.381866 144.580266-0.196267 3.3408 0.5888 5.504 3.3408 7.671467 27.933867 22.229333 59.208533 36.194133 94.813866 40.128 24 2.555733 47.402667-0.196267 69.0432-11.605333 16.328533-9.0496 28.3264-22.033067 35.409067-40.5248z m-48.192-371.575467c0-35.409067-28.7232-63.931733-64.128-63.931733-35.012267 0-63.931733 28.919467-63.931733 63.735466 0 35.012267 28.919467 63.927467 63.735466 63.927467 35.4048 0 64.324267-28.522667 64.324267-63.7312z m-165.034667 370.594133c0.388267-8.260267 1.373867-15.146667 2.551467-22.229333 5.12-26.555733 15.146667-50.747733 30.4896-72.977067 1.181867-1.770667 2.56-3.1488-0.785067-4.522666-20.066133-7.867733-40.520533-12.7872-62.161066-12.7872-2.359467 0-3.541333 0.785067-4.3264 2.952533-4.522667 12.782933-5.312 25.962667-3.541334 39.1424 2.756267 19.669333 11.2128 36.9792 22.818134 53.111467 4.522667 5.9008 9.0496 11.409067 14.9504 17.309866z m100.7104-155.396266c-28.718933-7.675733-56.260267-9.442133-83.797333-0.593067-16.721067 5.508267-30.882133 14.754133-41.506133 29.111467-0.5888 0.9856-1.962667 1.770667-1.373867 3.1488 0.392533 0.981333 1.570133 0.5888 2.359467 0.5888 21.636267 1.378133 42.2912 6.101333 62.1568 14.557866 2.952533 1.181867 4.330667 0.392533 6.101333-1.770666 4.9152-6.101333 10.624-11.8016 16.324267-17.109334 11.8016-10.624 24.5888-19.6736 39.735466-27.933866z m82.218667-61.768534c-10.619733 9.245867-21.239467 16.5248-32.648533 24 14.357333 5.9008 27.9296 11.605333 42.487466 17.506134-3.345067-14.165333-6.4896-27.541333-9.834666-41.506134z m31.278933-31.274666c-7.082667 8.064-13.768533 15.735467-21.243733 22.229333-2.1632 1.962667-2.1632 2.948267 0 4.9152 7.671467 6.293333 15.342933 12.983467 23.0144 19.2768 0.981333 0.789333 1.966933 3.345067 3.933867 1.966933 1.770667-1.378133 3.933867-3.1488 3.345066-5.9008-0.196267-0.981333-0.392533-1.770667-0.5888-2.752-0.789333-3.345067-1.378133-6.8864-2.1632-10.231466-1.966933-9.442133-4.1344-19.080533-6.2976-29.504z m-115.072 79.274666c17.1136 5.896533 33.442133 7.0784 50.158934 6.0928 2.56-0.196267 2.1632-1.373867 1.181866-2.948266-3.345067-6.293333-6.493867-12.586667-9.834666-18.884267-0.789333-1.770667-1.770667-2.1632-3.541334-1.181867-11.8016 6.690133-24 12.002133-37.9648 16.917334zM552.789333 347.178667a335.274667 335.274667 0 0 1-16.5248 23.799466c-0.5888 0.785067-1.373867 1.5744-0.196266 2.56 6.690133 5.700267 13.184 11.4048 19.669333 17.109334 7.872-15.146667 0.3968-28.714667-2.948267-43.4688z" fill="#191110" p-id="4855"></path><path d="M773.294933 328.8832l-0.785066-0.785067c0.5888-0.789333 0.981333-1.578667 1.5744-2.167466 19.669333-22.421333 44.258133-37.175467 72.7808-45.44 7.082667-1.962667 14.357333-3.144533 21.832533-4.9152-14.357333-19.669333-31.6672-35.208533-52.125867-47.210667-22.229333-12.9792-46.0288-20.4544-71.7952-23.0144-23.803733-2.1632-47.210667-0.196267-70.229333 6.493867-0.192-0.3968-0.388267-0.593067-0.5888-0.981334 13.376-8.853333 28.130133-14.165333 43.669333-17.117866 48.785067-9.245867 93.239467 1.378133 132.5824 31.867733 18.688 14.357333 33.437867 32.256 44.258134 53.307733 3.933867 7.4752 0 14.5536-8.4608 14.5536-41.109333-0.392533-78.289067 11.605333-111.9232 35.2128-0.5888 0.196267-0.789333 0.196267-0.789334 0.196267z" fill="#191211" p-id="4856"></path><path d="M674.3552 212.040533a184.234667 184.234667 0 0 1 70.2208-6.493866c25.5744 2.363733 49.570133 9.838933 71.799467 23.0144 20.458667 12.002133 37.768533 27.345067 52.125866 47.210666-7.4752 1.770667-14.749867 2.952533-21.832533 4.919467-28.522667 8.260267-53.111467 23.0144-72.7808 45.44-0.593067 0.5888-0.981333 1.373867-1.578667 2.1632-2.944 2.359467-2.944-0.789333-3.3408-1.966933-5.111467-11.605333-11.016533-22.621867-17.506133-33.442134-0.785067-1.181867-1.181867-2.56-2.56-3.1488-0.785067 1.966933 0.593067 3.1488 1.181867 4.7232 13.969067 31.470933 22.621867 64.324267 24.981333 98.747734 1.966933 30.882133-0.981333 61.371733-9.045333 91.268266-10.427733 37.9648-28.130133 72.388267-52.3264 103.2704-35.601067 45.636267-80.059733 80.456533-132.381867 105.045334-11.605333 5.504-23.406933 10.026667-35.208533 14.749866-10.427733 4.3264-20.066133 10.030933-27.345067 19.2768-3.933867 5.115733-6.4896 10.820267-5.704533 18.0992 8.4608-4.919467 16.917333-9.245867 26.555733-13.184 1.966933 39.543467-8.853333 74.359467-32.6528 106.222934-1.5744-5.504-2.752-9.834667-4.130133-14.357334-5.115733-15.735467-13.184-30.293333-21.44-44.650666-5.704533-9.838933-9.642667-20.2624-10.427734-31.671467 0-0.5888-0.196267-1.181867-0.196266-1.770667-0.392533-2.56 2.1632-5.704533-0.196267-7.671466-1.770667-1.5744-4.919467-1.378133-7.278933-2.1632-21.44-5.115733-41.7024-13.768533-61.371734-23.803734-10.030933-5.111467-21.047467-8.6528-32.064-11.208533-0.785067-0.200533-1.5744-0.593067-3.345066-1.378133 14.3616-2.756267 27.7376-4.919467 41.309866-4.7232 6.690133 0 13.376 2.167467 20.2624 2.952533 12.194133 1.181867 24.192 0.785067 36.3904-0.785067 6.882133-0.789333 13.568 1.7664 20.258134 2.752 10.0352 1.5744 10.231467 1.966933 12.7872-7.867733 1.181867-4.130133 3.1488-6.690133 6.8864-8.853333 22.0288-12.782933 36.586667-31.274667 41.7024-56.452267 0.5888-2.756267 2.1632-3.345067 4.3264-3.933867 29.896533-10.0352 53.700267-28.130133 71.402666-54.097066 10.427733-15.342933 17.309867-32.256 20.2624-50.747734 0.196267-0.789333 0-1.770667 0-4.130133-18.0992 45.0432-48.392533 76.5184-94.225066 90.090667-46.0288 13.568-88.123733 4.522667-127.069867-25.770667 23.210667-2.948267 44.061867-9.045333 63.1424-20.258133 19.2768-11.2128 35.605333-25.5744 48.584533-44.8512-3.3408-0.196267-4.3264 1.770667-5.704533 2.952533-3.541333 2.752-6.882133 5.704533-10.2272 8.456533-1.378133 1.181867-2.359467 1.5744-3.7376-0.196266a191.995733 191.995733 0 0 0-27.144533-24.981334c-0.392533-0.196267-0.392533-0.785067-0.981334-1.378133 12.3904-5.111467 23.995733-11.016533 34.615467-18.884267 35.016533-25.962667 55.867733-60.386133 61.9648-103.466666 3.541333-24.5888 0.785067-48.7808-7.867733-72.192-2.359467-6.4896-5.312-8.849067-10.427734-9.045334-5.9008-0.196267-9.045333 3.3408-11.2128 8.456534-22.421333 52.125867-58.222933 92.0576-108.1856 119.402666-28.130133 15.342933-58.2272 24.584533-90.286933 27.9296-46.421333 4.919467-90.683733-2.948267-132.778667-23.0144-3.933867-1.770667-4.919467-3.1488-2.752-7.671466 27.144533-57.8304 60.586667-111.138133 104.8448-157.559467 5.111467-5.508267 10.624-10.624 17.109334-16.917333-2.555733 27.144533 4.7232 49.373867 23.4112 67.4688 12.782933 12.394667 28.125867 19.669333 45.832533 21.44 37.175467 3.7376 70.613333-18.094933 82.615467-52.522667 11.605333-33.8304-1.378133-76.317867-40.7168-96.384 95.2064-22.818133 180.181333 0 257.092266 58.619733 0.196267-1.5744-1.770667-2.359467-2.948266-3.541333-8.853333-9.245867-19.080533-16.917333-28.522667-25.570133a7.0144 7.0144 0 0 1-2.1632-1.966934z m73.3696 75.9296c-0.392533 0.196267-0.5888 0.392533-0.785067 0.5888l1.1776 0.5888c0.196267 0 0.392533-0.392533 0.593067-0.5888a4.3008 4.3008 0 0 1-0.981333-0.5888z" fill="#F3F3F3" p-id="4857"></path><path d="M529.3824 627.677867c-7.082667 18.491733-19.2768 31.4752-35.8016 40.128-21.636267 11.409067-45.047467 14.3616-69.0432 11.605333-35.605333-3.933867-66.88-17.898667-94.813867-40.128-2.752-2.1632-3.541333-4.3264-3.345066-7.671467 4.1344-62.1568 32.456533-110.3488 84.3904-144.576 5.307733-3.541333 11.2128-6.101333 16.7168-9.442133 2.363733-1.378133 4.330667-1.378133 6.8864-0.392533 26.752 11.012267 49.7664 27.144533 68.650666 48.981333 3.933867 4.522667 3.933867 4.522667-0.981333 7.470933-31.872 19.669333-66.2912 28.3264-103.6672 24.789334-4.3264-0.3968-7.4752 0.981333-9.6384 4.718933-2.359467 4.130133-1.5744 7.867733 1.181867 11.409067 13.376 16.913067 29.896533 30.0928 49.173333 39.927466 24.789333 12.590933 51.3408 16.5248 78.685867 14.557867 3.933867 0.196267 7.4752-0.5888 11.605333-1.378133z" fill="#F9C502" p-id="4858"></path><path d="M481.1904 256.1024c0 35.208533-28.919467 63.7312-64.324267 63.7312-34.816 0-63.735467-28.9152-63.735466-63.927467 0-34.816 28.919467-63.735467 63.931733-63.735466 35.4048 0 64.128 28.522667 64.128 63.931733z m-87.7312 36.782933c14.161067 11.2128 39.7312 8.853333 54.485333-4.718933 15.735467-14.3616 17.309867-37.376 10.2272-48.981333-3.541333 13.572267-12.3904 20.650667-25.7664 20.2624-11.016533-0.200533-20.8512-8.657067-22.818133-19.477334-2.1632-11.409067 4.3264-20.8512 18.0992-26.752-17.5104-5.704533-39.5392 3.345067-49.770667 20.2624-8.849067 14.3616-7.082667 35.605333-0.196266 42.683734 2.756267-8.456533 9.0496-12.782933 16.725333-11.409067 7.6672 1.181867 13.175467 7.278933 12.9792 14.165333 0 7.082667-5.312 12.586667-13.9648 13.9648z" fill="#FBFBFB" p-id="4859"></path><path d="M316.151467 626.696533a115.255467 115.255467 0 0 1-14.754134-17.309866c-11.605333-15.936-20.061867-33.245867-22.818133-53.111467-1.7664-13.179733-0.981333-26.359467 3.541333-39.1424 0.789333-2.167467 1.966933-2.952533 4.330667-2.952533 21.632 0 42.094933 4.919467 62.1568 12.7872 3.541333 1.373867 2.1632 2.752 0.789333 4.522666-15.3472 22.229333-25.378133 46.6176-30.4896 72.977067a149.1712 149.1712 0 0 0-2.756266 22.229333z m100.714666-155.396266c-15.146667 8.260267-27.933867 17.309867-39.5392 28.125866a148.846933 148.846933 0 0 0-16.324266 17.1136c-1.770667 2.1632-3.1488 2.952533-6.101334 1.770667-19.8656-8.456533-40.520533-13.376-62.1568-14.5536-0.789333 0-1.966933 0.392533-2.359466-0.593067-0.593067-1.378133 0.785067-2.1632 1.373866-3.144533 10.624-14.3616 24.789333-23.607467 41.506134-29.115733 27.3408-9.045333 54.882133-7.278933 83.601066 0.3968z" fill="#F9C502" p-id="4860"></path><path d="M499.089067 409.531733c3.345067 14.165333 6.4896 27.3408 9.6384 41.506134-14.557867-6.101333-28.130133-11.605333-42.487467-17.506134 11.605333-7.4752 22.229333-14.9504 32.849067-24z m31.274666-31.274666c2.1632 10.423467 4.330667 20.061867 6.2976 29.504 0.785067 3.345067 1.373867 6.8864 2.1632 10.231466 0.196267 0.981333 0.392533 1.770667 0.5888 2.752 0.392533 2.952533-1.5744 4.522667-3.345066 5.9008-1.962667 1.378133-2.752-0.981333-3.933867-1.962666-7.671467-6.2976-15.342933-12.987733-23.0144-19.281067-2.1632-1.770667-2.1632-2.952533 0-4.919467 7.4752-6.4896 13.9648-13.9648 21.248-22.229333z m-115.072 79.274666c13.9648-5.12 26.359467-10.427733 38.161067-16.9216 1.770667-0.981333 2.752-0.5888 3.541333 1.181867a866.176 866.176 0 0 0 9.834667 18.884267c0.785067 1.5744 1.378133 2.752-1.181867 2.948266-16.913067 1.181867-33.2416 0-50.3552-6.097066zM552.789333 347.178667c3.345067 14.946133 10.820267 28.322133 2.952534 43.4688-6.493867-5.704533-13.184-11.409067-19.669334-17.109334-1.181867-0.9856-0.597333-1.774933 0.192-2.56a335.274667 335.274667 0 0 0 16.5248-23.799466z" fill="#FBFBFB" p-id="4861"></path><path d="M747.7248 287.970133c0.196267 0.196267 0.5888 0.392533 0.981333 0.785067-0.196267 0.196267-0.392533 0.5888-0.5888 0.5888l-1.1776-0.5888a1.536 1.536 0 0 1 0.785067-0.785067z" fill="#191110" p-id="4862"></path><path d="M393.4592 292.885333c8.6528-1.378133 13.9648-6.8864 14.161067-13.9648 0.196267-6.8864-5.312-12.983467-12.983467-14.165333-7.4752-1.1776-13.768533 3.1488-16.721067 11.409067-6.882133-6.882133-8.6528-28.322133 0.200534-42.683734 10.423467-16.721067 32.256-25.966933 49.7664-20.2624-13.969067 6.101333-20.2624 15.543467-18.0992 26.752 1.966933 10.820267 11.8016 19.080533 22.818133 19.477334 13.376 0.392533 22.229333-6.690133 25.770667-20.2624 6.882133 11.409067 5.504 34.423467-10.231467 48.981333-14.754133 13.568-40.520533 15.931733-54.6816 4.718933z" fill="#060303" p-id="4863"></path></svg>