<svg id="SvgjsSvg1069" width="453.07581018518516" height="451.1805555555555" xmlns="http://www.w3.org/2000/svg" version="1.1" xmlns:xlink="http://www.w3.org/1999/xlink" xmlns:svgjs="http://svgjs.com/svgjs"><defs id="SvgjsDefs1070"><pattern patternUnits="userSpaceOnUse" id="pattern_mark_0" width="300" height="300"><text x="150" y="100" fill="rgba(229,229,229,0.8)" font-size="18" transform="rotate(-45, 150, 150)" style="dominant-baseline: middle; text-anchor: middle;"></text></pattern><pattern patternUnits="userSpaceOnUse" id="pattern_mark_1" width="300" height="300"><text x="150" y="200" fill="rgba(229,229,229,0.8)" font-size="18" transform="rotate(-45, 150, 150)" style="dominant-baseline: middle; text-anchor: middle;"></text></pattern><marker id="SvgjsMarker1106" markerWidth="14" markerHeight="10" refX="10" refY="5" viewBox="0 0 14 10" orient="auto" markerUnits="userSpaceOnUse" stroke-dasharray="0,0"><path id="SvgjsPath1107" d="M0,0 L14,5 L0,10 L0,0" fill="#323232" stroke="#323232" stroke-width="1"></path></marker><marker id="SvgjsMarker1114" markerWidth="14" markerHeight="10" refX="10" refY="5" viewBox="0 0 14 10" orient="auto" markerUnits="userSpaceOnUse" stroke-dasharray="0,0"><path id="SvgjsPath1115" d="M0,0 L14,5 L0,10 L0,0" fill="#323232" stroke="#323232" stroke-width="1"></path></marker><marker id="SvgjsMarker1122" markerWidth="14" markerHeight="10" refX="10" refY="5" viewBox="0 0 14 10" orient="auto" markerUnits="userSpaceOnUse" stroke-dasharray="0,0"><path id="SvgjsPath1123" d="M0,0 L14,5 L0,10 L0,0" fill="#323232" stroke="#323232" stroke-width="1"></path></marker><marker id="SvgjsMarker1130" markerWidth="14" markerHeight="10" refX="10" refY="5" viewBox="0 0 14 10" orient="auto" markerUnits="userSpaceOnUse" stroke-dasharray="0,0"><path id="SvgjsPath1131" d="M0,0 L14,5 L0,10 L0,0" fill="#323232" stroke="#323232" stroke-width="1"></path></marker></defs><rect id="svgbackgroundid" width="453.07581018518516" height="451.1805555555555" fill="transparent"></rect><rect id="SvgjsRect1072" width="453.07581018518516" height="451.1805555555555" fill="url(#pattern_mark_0)"></rect><rect id="SvgjsRect1073" width="453.07581018518516" height="451.1805555555555" fill="url(#pattern_mark_1)"></rect><g id="SvgjsG1074" transform="translate(25.009259259259267,25.004050925925938)"><path id="SvgjsPath1075" d="M 0 4Q 0 0 4 0L 139 0Q 143 0 143 4L 143 30Q 143 34 139 34L 4 34Q 0 34 0 30Z" stroke="rgba(33,41,48,1)" stroke-width="2" fill-opacity="1" fill="#ffffff"></path><g id="SvgjsG1076"><text id="SvgjsText1077" font-family="微软雅黑" text-anchor="middle" font-size="13px" width="123px" fill="#323232" font-weight="400" align="middle" lineHeight="125%" anchor="middle" family="微软雅黑" size="13px" weight="400" font-style="" opacity="1" y="6.375" transform="rotate(0)"><tspan id="SvgjsTspan1078" dy="16" x="71.5"><tspan id="SvgjsTspan1079" style="text-decoration:;">编译型语言，如 java</tspan></tspan></text></g></g><g id="SvgjsG1080" transform="translate(48.00925925925927,142.00405092592592)"><path id="SvgjsPath1081" d="M 0 4Q 0 0 4 0L 94 0Q 98 0 98 4L 98 30Q 98 34 94 34L 4 34Q 0 34 0 30Z" stroke="rgba(33,41,48,1)" stroke-width="2" fill-opacity="1" fill="#ffffff"></path><g id="SvgjsG1082"><text id="SvgjsText1083" font-family="微软雅黑" text-anchor="middle" font-size="13px" width="78px" fill="#323232" font-weight="400" align="middle" lineHeight="125%" anchor="middle" family="微软雅黑" size="13px" weight="400" font-style="" opacity="1" y="6.375" transform="rotate(0)"><tspan id="SvgjsTspan1084" dy="16" x="49"><tspan id="SvgjsTspan1085" style="text-decoration:;">中间代码文件</tspan></tspan></text></g></g><g id="SvgjsG1086" transform="translate(249.00925925925924,25.004050925925938)"><path id="SvgjsPath1087" d="M 0 4Q 0 0 4 0L 175 0Q 179 0 179 4L 179 30Q 179 34 175 34L 4 34Q 0 34 0 30Z" stroke="rgba(33,41,48,1)" stroke-width="2" fill-opacity="1" fill="#ffffff"></path><g id="SvgjsG1088"><text id="SvgjsText1089" font-family="微软雅黑" text-anchor="middle" font-size="13px" width="159px" fill="#323232" font-weight="400" align="middle" lineHeight="125%" anchor="middle" family="微软雅黑" size="13px" weight="400" font-style="" opacity="1" y="6.375" transform="rotate(0)"><tspan id="SvgjsTspan1090" dy="16" x="89.5"><tspan id="SvgjsTspan1091" style="text-decoration:;">解释型语言，如 JavaScript</tspan></tspan></text></g></g><g id="SvgjsG1092" transform="translate(175.00925925925927,301.0040509259259)"><path id="SvgjsPath1093" d="M 0 4Q 0 0 4 0L 70 0Q 74 0 74 4L 74 30Q 74 34 70 34L 4 34Q 0 34 0 30Z" stroke="rgba(33,41,48,1)" stroke-width="2" fill-opacity="1" fill="#ffffff"></path><g id="SvgjsG1094"><text id="SvgjsText1095" font-family="微软雅黑" text-anchor="middle" font-size="13px" width="54px" fill="#323232" font-weight="400" align="middle" lineHeight="125%" anchor="middle" family="微软雅黑" size="13px" weight="400" font-style="" opacity="1" y="6.375" transform="rotate(0)"><tspan id="SvgjsTspan1096" dy="16" x="37"><tspan id="SvgjsTspan1097" style="text-decoration:;">机器语言</tspan></tspan></text></g></g><g id="SvgjsG1098" transform="translate(175.00925925925927,386.0040509259259)"><path id="SvgjsPath1099" d="M 0 20C 0 -6.666666666666667 74 -6.666666666666667 74 20C 74 46.666666666666664 0 46.666666666666664 0 20Z" stroke="rgba(33,41,48,1)" stroke-width="2" fill-opacity="1" fill="#ffffff"></path><g id="SvgjsG1100"><text id="SvgjsText1101" font-family="微软雅黑" text-anchor="middle" font-size="13px" width="54px" fill="#323232" font-weight="400" align="middle" lineHeight="125%" anchor="middle" family="微软雅黑" size="13px" weight="400" font-style="" opacity="1" y="9.375" transform="rotate(0)"><tspan id="SvgjsTspan1102" dy="16" x="37"><tspan id="SvgjsTspan1103" style="text-decoration:;">执行</tspan></tspan></text></g></g><g id="SvgjsG1104"><path id="SvgjsPath1105" d="M96.5113642121697 60.004048710510105C 96.50925925925927 92.20465333009928 97.00925925925927 108.8034485217526 97.00168142878167 138.40405890142296" stroke="#323232" stroke-width="2" fill="none" marker-end="url(#SvgjsMarker1106)"></path><rect id="SvgjsRect1108" width="94" height="16" x="49.71419941275816" y="87.88388705190799" fill="#ffffff"></rect><text id="SvgjsText1109" font-family="微软雅黑" text-anchor="middle" font-size="13px" width="94px" fill="#323232" font-weight="400" align="top" lineHeight="16px" anchor="middle" family="微软雅黑" size="13px" weight="400" font-style="" opacity="1" y="85.25888705190799" transform="rotate(0)"><tspan id="SvgjsTspan1110" dy="16" x="96.71419941275816"><tspan id="SvgjsTspan1111" style="text-decoration:;">java 编译器编译</tspan></tspan></text></g><g id="SvgjsG1112"><path id="SvgjsPath1113" d="M97.1319316189408 176.9964981497974C 97.00925925925927 243.94520193177806 212.00925925925927 233.0628999200738 211.5676387644058 297.4312409199887" stroke="#323232" stroke-width="2" fill="none" marker-end="url(#SvgjsMarker1114)"></path><rect id="SvgjsRect1116" width="65" height="16" x="115.10031016721712" y="226.87894225921258" fill="#ffffff"></rect><text id="SvgjsText1117" font-family="微软雅黑" text-anchor="middle" font-size="13px" width="65px" fill="#323232" font-weight="400" align="top" lineHeight="16px" anchor="middle" family="微软雅黑" size="13px" weight="400" font-style="" opacity="1" y="224.25394225921258" transform="rotate(0)"><tspan id="SvgjsTspan1118" dy="16" x="147.60031016721712"><tspan id="SvgjsTspan1119" style="text-decoration:;">运行时编译</tspan></tspan></text></g><g id="SvgjsG1120"><path id="SvgjsPath1121" d="M338.45821222094594 60.002747175983714C 338.50925925925924 168.23133689422235 212.00925925925932 191.7767649576295 212.19302859718724 297.408744425718" stroke="#323232" stroke-width="2" fill="none" marker-end="url(#SvgjsMarker1122)"></path><rect id="SvgjsRect1124" width="119" height="16" x="234.48199433661085" y="151.9023988793598" fill="#ffffff"></rect><text id="SvgjsText1125" font-family="微软雅黑" text-anchor="middle" font-size="13px" width="119px" fill="#323232" font-weight="400" align="top" lineHeight="16px" anchor="middle" family="微软雅黑" size="13px" weight="400" font-style="" opacity="1" y="149.2773988793598" transform="rotate(0)"><tspan id="SvgjsTspan1126" dy="16" x="293.98199433661085"><tspan id="SvgjsTspan1127" style="text-decoration:;">JavaScript 引擎解释</tspan></tspan></text></g><g id="SvgjsG1128"><path id="SvgjsPath1129" d="M212.00925925925927 336.0040509259259C 212.00925925925927 355.4040509259259 212.00925925925927 365.60405092592595 212.00925925925927 382.4040509259259" stroke="#323232" stroke-width="2" fill="none" marker-end="url(#SvgjsMarker1130)"></path></g></svg>