<?xml version="1.0" standalone="no"?><!DOCTYPE svg PUBLIC "-//W3C//DTD SVG 1.1//EN" "http://www.w3.org/Graphics/SVG/1.1/DTD/svg11.dtd"><svg t="1716013780035" class="icon" viewBox="0 0 1024 1024" version="1.1" xmlns="http://www.w3.org/2000/svg" p-id="1862" xmlns:xlink="http://www.w3.org/1999/xlink" width="200" height="200"><path d="M585.142857 585.142857m-438.857143 0a438.857143 438.857143 0 1 0 877.714286 0 438.857143 438.857143 0 1 0-877.714286 0Z" fill="#15559a" opacity=".25" p-id="1863"></path><path d="M512 1024A512 512 0 1 1 1024 512 512.487619 512.487619 0 0 1 512 1024z m0-975.238095a463.238095 463.238095 0 1 0 463.238095 463.238095A463.725714 463.725714 0 0 0 512 48.761905z" fill="#15559a" p-id="1864"></path><path d="M357.912381 629.51619a16.579048 16.579048 0 0 1-11.702857-5.363809 18.041905 18.041905 0 0 1-4.876191-12.678095V412.525714a17.066667 17.066667 0 0 1 4.876191-12.678095 14.628571 14.628571 0 0 1 11.702857-5.363809h97.523809a14.628571 14.628571 0 0 1 11.702858 5.363809 17.066667 17.066667 0 0 1 4.87619 12.678095 17.554286 17.554286 0 0 1-4.87619 13.165715 16.579048 16.579048 0 0 1-11.702858 5.363809H386.681905v48.761905h56.563809a14.628571 14.628571 0 0 1 11.702857 5.363809 18.529524 18.529524 0 0 1 4.876191 13.165715 17.554286 17.554286 0 0 1-4.876191 13.165714 15.60381 15.60381 0 0 1-11.702857 5.363809H386.681905v58.514286h73.142857a14.628571 14.628571 0 0 1 11.702857 5.36381 18.529524 18.529524 0 0 1 4.876191 13.165714 19.017143 19.017143 0 0 1-4.876191 13.165714 14.628571 14.628571 0 0 1-11.702857 5.36381z m255.024762 4.388572a100.449524 100.449524 0 0 1-40.96-7.801905 97.52381 97.52381 0 0 1-32.670476-22.918095 109.226667 109.226667 0 0 1-21.942857-38.521905 155.062857 155.062857 0 0 1-8.289524-51.687619 157.500952 157.500952 0 0 1 8.289524-51.687619 105.325714 105.325714 0 0 1 22.430476-39.009524 97.52381 97.52381 0 0 1 73.142857-32.182857 85.333333 85.333333 0 0 1 53.638095 18.529524 15.60381 15.60381 0 0 1 5.851429 13.165714 17.554286 17.554286 0 0 1-3.900953 12.190476 15.60381 15.60381 0 0 1-11.215238 6.339048 21.942857 21.942857 0 0 1-14.140952-1.462857 48.761905 48.761905 0 0 0-28.769524-8.289524 53.638095 53.638095 0 0 0-44.373333 21.455238 97.52381 97.52381 0 0 0-16.579048 59.489524 99.961905 99.961905 0 0 0 16.091429 60.464762 56.07619 56.07619 0 0 0 48.761904 21.455238 39.984762 39.984762 0 0 0 25.84381-7.801905 3.900952 3.900952 0 0 0 0-3.413333v-41.935238-2.438095h-19.504762a16.091429 16.091429 0 0 1-11.702857-4.876191 18.529524 18.529524 0 0 1-4.876191-13.165714 17.066667 17.066667 0 0 1 4.876191-12.678095 14.628571 14.628571 0 0 1 11.702857-5.36381h43.398095a14.628571 14.628571 0 0 1 11.702857 5.36381 17.066667 17.066667 0 0 1 4.876191 12.678095v69.729524a32.670476 32.670476 0 0 1-13.165714 29.257142 97.52381 97.52381 0 0 1-56.56381 17.066667z" fill="#15559a" p-id="1865"></path><path d="M760.685714 390.095238a19.504762 19.504762 0 0 1-19.504762-19.504762V289.158095a6.339048 6.339048 0 0 0-6.339047-6.339047H337.92a6.339048 6.339048 0 0 0-6.339048 6.339047V370.590476a19.504762 19.504762 0 0 1-39.009523 0V289.158095A45.348571 45.348571 0 0 1 337.92 243.809524h396.921905a45.348571 45.348571 0 0 1 45.348571 45.348571V370.590476a19.504762 19.504762 0 0 1-19.504762 19.504762zM734.841905 780.190476H337.92A48.761905 48.761905 0 0 1 292.571429 731.428571v-124.830476a19.504762 19.504762 0 1 1 39.009523 0V731.428571a6.826667 6.826667 0 0 0 6.339048 6.826667h396.921905a6.826667 6.826667 0 0 0 6.339047-6.826667v-124.830476a19.504762 19.504762 0 1 1 39.009524 0V731.428571a48.761905 48.761905 0 0 1-45.348571 48.761905z" fill="#15559a" p-id="1866"></path></svg>