<?xml version="1.0" standalone="no"?><!DOCTYPE svg PUBLIC "-//W3C//DTD SVG 1.1//EN" "http://www.w3.org/Graphics/SVG/1.1/DTD/svg11.dtd"><svg class="icon" width="200px" height="200.00px" viewBox="0 0 1024 1024" version="1.1" xmlns="http://www.w3.org/2000/svg"><path d="M739.555556 284.444444m-284.444445 0a284.444444 284.444444 0 1 0 568.888889 0 284.444444 284.444444 0 1 0-568.888889 0Z" fill="#9B77FF" /><path d="M797.809778 706.275556h-72.817778v-140.401778a218.197333 218.197333 0 0 0-4.636444-57.685334 40.362667 40.362667 0 0 0-15.189334-20.337777 43.207111 43.207111 0 0 0-25.287111-7.253334 58.254222 58.254222 0 0 0-33.934222 10.382223 51.996444 51.996444 0 0 0-20.593778 27.448888 237.824 237.824 0 0 0-5.688889 63.232v124.643556h-72.817778v-275.228444h67.754667v40.419555a112.839111 112.839111 0 0 1 134.741333-37.973333 73.699556 73.699556 0 0 1 30.179556 22.158222 79.644444 79.644444 0 0 1 14.222222 30.577778 228.750222 228.750222 0 0 1 4.010667 48.981333v171.036445z m-570.624 0v-379.904h281.6v64.256h-204.999111v84.224h190.72v64.028444h-190.72v103.367111h212.252444v64.028445h-288.824889z" fill="#333333" /><path d="M48.042667 882.119111v-742.286222a92.785778 92.785778 0 0 1 92.814222-92.785778h742.4a92.785778 92.785778 0 0 1 92.785778 92.785778v742.4a92.785778 92.785778 0 0 1-92.785778 92.785778h-742.4a92.785778 92.785778 0 0 1-92.814222-92.899556z m858.254222 0v-742.286222a23.182222 23.182222 0 0 0-23.210667-23.182222h-742.229333a23.182222 23.182222 0 0 0-23.182222 23.182222v742.4a23.182222 23.182222 0 0 0 23.182222 23.182222h742.4a23.182222 23.182222 0 0 0 23.210667-23.182222z" fill="#333333" /></svg>